<?xml version="1.0" encoding="UTF-8"?>
<!DOCTYPE svg PUBLIC "-//W3C//DTD SVG 1.1//EN"
    "http://www.w3.org/Graphics/SVG/1.1/DTD/svg11.dtd">
<svg xmlns="http://www.w3.org/2000/svg" xmlns:xlink="http://www.w3.org/1999/xlink" version="1.1" width="800.0" height="1028.0863302917237" font-size="1" viewBox="0 0 800 1028"><g><g stroke="rgb(0,0,0)" stroke-opacity="1.0" fill="rgb(0,0,0)" fill-opacity="0.0" stroke-width="1.0e-2" stroke-linecap="butt" stroke-linejoin="miter" font-size="1.0em" stroke-miterlimit="10.0"><g transform="matrix(266.41854281363425,0.0,0.0,266.41854281363425,400.0,514.0431651458617)"><g><g fill-opacity="0.0" stroke-width="1.0e-2"><path d="M 0.17591536664358176,0.27025116680775096 l 1.0752487971305122,-0.6131894113159748 " /></g><g fill-opacity="0.0" stroke-width="1.0e-2"><path d="M 0.17591536664358176,0.27025116680775096 l -0.37158733055618476,-0.6873567297953589 " /></g><g fill-opacity="0.0" stroke-width="1.0e-2"><path d="M -0.5277460999307455,1.5707973079190845 l 1.2665906398337892,-2.3409830540004 " /></g><g fill="rgb(0,0,0)" fill-opacity="1.0" stroke-width="1.0e-2"><path d="M -0.5277460999307455,1.5707973079190845 l 2.5e-2,1.5308084989341916e-18 l -1.5000000000000001e-2,-2.4557181268217216 h -2.0e-2 l -1.5000000000000001e-2,2.4557181268217216 h 2.5e-2 Z" /></g><g fill-opacity="0.0" stroke-width="1.0e-2" stroke-dasharray="3.0e-2,3.0e-2" stroke-dashoffset="0.0"><path d="M 0.195671963912603,1.6078809671587766 l -1.446836127686697,-7.416731847938413e-2 l 1.055492199861491,-0.7229601482561395 l 1.446836127686697,7.416731847938407e-2 l -1.055492199861491,0.7229601482561395 " /></g><g fill-opacity="0.0" stroke-width="1.0e-2" stroke-dasharray="3.0e-2,3.0e-2" stroke-dashoffset="0.0"><path d="M -0.5277460999307455,1.5707973079190845 v -2.4557181268217216 l 1.055492199861491,-0.7229601482561394 v 2.4557181268217216 l -1.055492199861491,0.7229601482561395 " /></g><g fill-opacity="0.0" stroke-width="1.0e-2" stroke-dasharray="3.0e-2,3.0e-2" stroke-dashoffset="0.0"><path d="M 0.195671963912603,1.6078809671587766 l -1.446836127686697,-7.416731847938413e-2 l 1.055492199861491,-1.9508192116670002 l 1.446836127686697,7.416731847938407e-2 l -1.055492199861491,1.9508192116670005 " /></g><g fill-opacity="0.0"><path d="M 0.49762982719000903,8.598475528034516e-2 c -0.11710401044401707,-4.202239590211038e-2 -0.28071208896492045,-5.010912866527442e-2 -0.43546208954556886 -2.1523787691169013e-2" /></g><g fill-opacity="0.0"><path d="M -0.4020523825302864,1.3354129103293584 c -1.7540915280300835e-2,-0.1926396479228686 -6.877492601233143e-2,-0.2960188260357233 -0.1264809517982538 -0.25521126800366833" /></g><g><g fill="rgb(0,0,0)" fill-opacity="1.0"><text transform="matrix(7.5e-2,0.0,0.0,7.5e-2,0.6722539000692545,7.079730791908445e-2)" dominant-baseline="text-before-edge" text-anchor="start" stroke="none">4</text></g><g fill="rgb(0,0,0)" fill-opacity="1.0" font-size="1.0em" font-style="italic"><text transform="matrix(0.15,0.0,0.0,0.15,0.6722539000692545,7.079730791908445e-2)" dominant-baseline="middle" text-anchor="middle" stroke="none">r</text></g></g><g><g fill="rgb(0,0,0)" fill-opacity="1.0"><text transform="matrix(7.5e-2,0.0,0.0,7.5e-2,-7.77460999307455e-2,2.5797307919084522e-2)" dominant-baseline="text-before-edge" text-anchor="start" stroke="none">4</text></g><g fill="rgb(0,0,0)" fill-opacity="1.0" font-size="1.0em" font-style="italic"><text transform="matrix(0.15,0.0,0.0,0.15,-7.77460999307455e-2,2.5797307919084522e-2)" dominant-baseline="middle" text-anchor="middle" stroke="none">r</text></g></g><g><g fill="rgb(0,0,0)" fill-opacity="1.0"><text transform="matrix(7.5e-2,0.0,0.0,7.5e-2,0.3422539000692545,-0.2292026920809156)" dominant-baseline="text-before-edge" text-anchor="start" stroke="none">3</text></g><g fill="rgb(0,0,0)" fill-opacity="1.0" font-size="1.0em" font-style="italic"><text transform="matrix(0.15,0.0,0.0,0.15,0.3422539000692545,-0.2292026920809156)" dominant-baseline="middle" text-anchor="middle" stroke="none">r</text></g></g><g><g fill="rgb(0,0,0)" fill-opacity="1.0"><text transform="matrix(7.5e-2,0.0,0.0,7.5e-2,-8.77460999307455e-2,0.5707973079190845)" dominant-baseline="text-before-edge" text-anchor="start" stroke="none">2</text></g><g fill="rgb(0,0,0)" fill-opacity="1.0" font-size="1.0em" font-style="italic"><text transform="matrix(0.15,0.0,0.0,0.15,-8.77460999307455e-2,0.5707973079190845)" dominant-baseline="middle" text-anchor="middle" stroke="none">r</text></g></g><g><g fill="rgb(0,0,0)" fill-opacity="1.0"><text transform="matrix(7.5e-2,0.0,0.0,7.5e-2,-0.4177460999307455,0.5507973079190844)" dominant-baseline="text-before-edge" text-anchor="start" stroke="none">1</text></g><g fill="rgb(0,0,0)" fill-opacity="1.0" font-size="1.0em" font-style="italic"><text transform="matrix(0.15,0.0,0.0,0.15,-0.4177460999307455,0.5507973079190844)" dominant-baseline="middle" text-anchor="middle" stroke="none">r</text></g></g><g fill="rgb(0,0,0)" fill-opacity="1.0" font-size="1.0em" font-style="italic"><text transform="matrix(0.15,0.0,0.0,0.15,0.42225390006925445,-2.9202692080915638e-2)" dominant-baseline="middle" text-anchor="middle" stroke="none">θ</text></g><g fill="rgb(0,0,0)" fill-opacity="1.0" font-size="1.0em" font-style="italic"><text transform="matrix(0.15,0.0,0.0,0.15,0.17225390006925445,-4.7202692080915654e-2)" dominant-baseline="middle" text-anchor="middle" stroke="none">θ</text></g><g fill="rgb(0,0,0)" fill-opacity="1.0" font-size="1.0em" font-style="italic"><text transform="matrix(0.15,0.0,0.0,0.15,-0.3777460999307455,1.0707973079190845)" dominant-baseline="middle" text-anchor="middle" stroke="none">ϕ</text></g></g></g></g></g></svg>