<?xml version="1.0" encoding="UTF-8"?>
<!DOCTYPE svg PUBLIC "-//W3C//DTD SVG 1.1//EN"
    "http://www.w3.org/Graphics/SVG/1.1/DTD/svg11.dtd">
<svg xmlns="http://www.w3.org/2000/svg" xmlns:xlink="http://www.w3.org/1999/xlink" version="1.1" width="400.0" height="541.4940998813138" font-size="1" viewBox="0 0 400 541"><g><g stroke="rgb(0,0,0)" stroke-opacity="1.0" fill="rgb(0,0,0)" fill-opacity="0.0" stroke-width="1.0e-2" stroke-linecap="butt" stroke-linejoin="miter" font-size="1.0em" stroke-miterlimit="10.0"><g transform="matrix(143.25240737600893,0.0,0.0,143.25240737600893,200.0,270.7470499406569)"><g><g fill-opacity="0.0" stroke-width="1.0e-2"><path d="M 0.3614357671380008,0.788777235521827 l 0.5922615581925681,-0.1635835366793149 " /></g><g fill-opacity="0.0" stroke-width="1.0e-2"><path d="M 0.3614357671380008,0.788777235521827 l 0.2859354933828892,-0.3271670733586298 " /></g><g fill-opacity="0.0" stroke-width="1.0e-2"><path d="M 0.3614357671380008,0.788777235521827 l -0.3063260648096787,-0.1635835366793149 " /></g><g fill="rgb(0,0,0)" fill-opacity="1.0" stroke-width="1.0e-2"><path d="M -1.9811557372518163e-2,1.225 l 3.7647972146230475e-3,3.290334623220925e-3 l 0.38124732451051896,-0.4362227644781732 l -7.529594429246056e-3,-6.58066924644185e-3 l -0.38124732451051896,0.4362227644781732 l 3.764797214623028e-3,3.290334623220925e-3 Z" /></g><g fill-opacity="0.0" stroke-width="1.0e-2"><path d="M 0.6563365210298296,0.6887096355187006 l 0.10531453979436334,-0.20110888668048732 " /></g><g fill-opacity="0.0" stroke-width="1.0e-2"><path d="M 0.6563365210298296,0.6887096355187006 l 0.5071110588017608,-0.40221777336097464 " /></g><g fill-opacity="0.0" stroke-width="1.0e-2"><path d="M 0.6563365210298296,0.6887096355187006 l 0.40179651900739766,-0.20110888668048732 " /></g><g fill="rgb(0,0,0)" fill-opacity="1.0" stroke-width="1.0e-2"><path d="M -1.9811557372518163e-2,1.225 l 3.1070980045017084e-3,3.917389690906603e-3 l 0.6761480784023478,-0.5362903644812996 l -6.214196009003414e-3,-7.834779381813206e-3 l -0.6761480784023478,0.5362903644812996 l 3.107098004501707e-3,3.917389690906603e-3 Z" /></g><g fill-opacity="0.0" stroke-width="1.0e-2"><path d="M 1.68236119975426e-2,0.8275598514803179 l -0.5083813609518744,-0.14904005569488088 " /></g><g fill-opacity="0.0" stroke-width="1.0e-2"><path d="M 1.68236119975426e-2,0.8275598514803179 l 2.7476377027545566e-2,-0.29808011138976165 " /></g><g fill-opacity="0.0" stroke-width="1.0e-2"><path d="M 1.68236119975426e-2,0.8275598514803179 l 0.5358577379794202,-0.14904005569488088 " /></g><g fill="rgb(0,0,0)" fill-opacity="1.0" stroke-width="1.0e-2"><path d="M -1.9811557372518163e-2,1.225 l 4.978892534224253e-3,4.589434961365102e-4 l 3.663516937006076e-2,-0.39744014851968235 l -9.957785068448508e-3,-9.178869922730204e-4 l -3.663516937006076e-2,0.39744014851968235 l 4.978892534224254e-3,4.589434961365102e-4 Z" /></g><g fill-opacity="0.0" stroke-width="1.0e-2"><path d="M -0.6733178559205594,1.0445049772271315 l -0.41333103072902,-6.768563353982571e-2 " /></g><g fill-opacity="0.0" stroke-width="1.0e-2"><path d="M -0.6733178559205594,1.0445049772271315 l -0.49012972391103105,-0.13537126707965152 " /></g><g fill-opacity="0.0" stroke-width="1.0e-2"><path d="M -0.6733178559205594,1.0445049772271315 l -7.679869318201094e-2,-6.768563353982571e-2 " /></g><g fill="rgb(0,0,0)" fill-opacity="1.0" stroke-width="1.0e-2"><path d="M -1.9811557372518163e-2,1.225 l 1.3311350089300728e-3,-4.8195518036432405e-3 l -0.6535062985480412,-0.18049502277286866 l -2.6622700178602354e-3,9.639103607286481e-3 l 0.6535062985480412,0.18049502277286866 l 1.3311350089301177e-3,-4.8195518036432405e-3 Z" /></g><g fill-opacity="0.0" stroke-width="1.0e-2"><path d="M -0.4603358311074042,0.788777235521827 l 0.2511371575421677,-0.1635835366793148 " /></g><g fill-opacity="0.0" stroke-width="1.0e-2"><path d="M -0.4603358311074042,0.788777235521827 l -0.3303932053011646,-0.3271670733586298 " /></g><g fill-opacity="0.0" stroke-width="1.0e-2"><path d="M -0.4603358311074042,0.788777235521827 l -0.5815303628433326,-0.16358353667931502 " /></g><g fill="rgb(0,0,0)" fill-opacity="1.0" stroke-width="1.0e-2"><path d="M -1.9811557372518163e-2,1.225 l 3.51814547502567e-3,-3.5528372347402026e-3 l -0.44052427373488606,-0.4362227644781732 l -7.036290950051316e-3,7.105674469480405e-3 l 0.44052427373488606,0.4362227644781732 l 3.518145475025658e-3,-3.5528372347402026e-3 Z" /></g><g fill-opacity="0.0" stroke-width="1.0e-2"><path d="M 0.26490409278054255,0.6945049772271316 l 0.3571397420023173,-4.512375569321714e-2 " /></g><g fill-opacity="0.0" stroke-width="1.0e-2"><path d="M 0.26490409278054255,0.6945049772271316 l 0.14235782507653033,-9.024751138643439e-2 " /></g><g fill-opacity="0.0" stroke-width="1.0e-2"><path d="M 0.26490409278054255,0.6945049772271316 l -0.2147819169257869,-4.512375569321714e-2 " /></g><g fill="rgb(0,0,0)" fill-opacity="1.0" stroke-width="1.0e-2"><path d="M -1.9811557372518163e-2,0.8750000000000002 l 2.6771138612766373e-3,4.222920952819287e-3 l 0.2847156501530607,-0.18049502277286866 l -5.354227722553229e-3,-8.445841905638574e-3 l -0.2847156501530607,0.18049502277286866 l 2.6771138612766143e-3,4.222920952819287e-3 Z" /></g><g fill-opacity="0.0" stroke-width="1.0e-2"><path d="M 0.6763537693852731,0.4387772355218271 l 0.13670923851971295,-0.10905569111954327 " /></g><g fill-opacity="0.0" stroke-width="1.0e-2"><path d="M 0.6763537693852731,0.4387772355218271 l 0.3480826633788957,-0.21811138223908655 " /></g><g fill-opacity="0.0" stroke-width="1.0e-2"><path d="M 0.6763537693852731,0.4387772355218271 l 0.21137342485918276,-0.10905569111954327 " /></g><g fill="rgb(0,0,0)" fill-opacity="1.0" stroke-width="1.0e-2"><path d="M -1.9811557372518163e-2,0.8750000000000002 l 2.6548921573323857e-3,4.236926673065633e-3 l 0.6961653267577913,-0.4362227644781732 l -5.309784314664778e-3,-8.473853346131044e-3 l -0.6961653267577913,0.436222764478173 l 2.654892157332389e-3,4.236926673065633e-3 Z" /></g><g fill-opacity="0.0" stroke-width="1.0e-2"><path d="M 0.12572662619991282,0.3387096355187005 l -0.3371108132720401,-0.13407259112032488 " /></g><g fill-opacity="0.0" stroke-width="1.0e-2"><path d="M 0.12572662619991282,0.3387096355187005 l 7.276909178621549e-2,-0.26814518224064976 " /></g><g fill-opacity="0.0" stroke-width="1.0e-2"><path d="M 0.12572662619991282,0.3387096355187005 l 0.40987990505825556,-0.13407259112032488 " /></g><g fill="rgb(0,0,0)" fill-opacity="1.0" stroke-width="1.0e-2"><path d="M -1.9811557372518163e-2,0.8750000000000002 l 4.825466292232497e-3,1.3095323831535666e-3 l 0.14553818357243098,-0.5362903644812997 l -9.650932584464977e-3,-2.619064766307133e-3 l -0.14553818357243098,0.5362903644812997 l 4.825466292232489e-3,1.3095323831535666e-3 Z" /></g><g fill-opacity="0.0" stroke-width="1.0e-2"><path d="M -0.6260293400216252,0.4775598514803179 l -0.32583313837554095,-9.936003712992059e-2 " /></g><g fill-opacity="0.0" stroke-width="1.0e-2"><path d="M -0.6260293400216252,0.4775598514803179 l -0.30310889132455354,-0.19872007425984117 " /></g><g fill-opacity="0.0" stroke-width="1.0e-2"><path d="M -0.6260293400216252,0.4775598514803179 l 2.272424705098741e-2,-9.936003712992059e-2 " /></g><g fill="rgb(0,0,0)" fill-opacity="1.0" stroke-width="1.0e-2"><path d="M -1.9811557372518163e-2,0.8750000000000002 l 2.7414003190700635e-3,-4.181473937573066e-3 l -0.6062177826491071,-0.39744014851968223 l -5.482800638140217e-3,8.36294787514591e-3 l 0.6062177826491071,0.39744014851968246 l 2.7414003190701086e-3,-4.181473937573066e-3 Z" /></g><g fill-opacity="0.0" stroke-width="1.0e-2"><path d="M -0.5400129352066939,0.6945049772271316 l 7.940299101961434e-2,-4.512375569321714e-2 " /></g><g fill-opacity="0.0" stroke-width="1.0e-2"><path d="M -0.5400129352066939,0.6945049772271316 l -0.26010068891708793,-9.024751138643439e-2 " /></g><g fill-opacity="0.0" stroke-width="1.0e-2"><path d="M -0.5400129352066939,0.6945049772271316 l -0.3395036799367023,-4.512375569321725e-2 " /></g><g fill="rgb(0,0,0)" fill-opacity="1.0" stroke-width="1.0e-2"><path d="M -1.9811557372518163e-2,0.8750000000000002 l 1.6390012442307894e-3,-4.72373527215586e-3 l -0.5202013778341757,-0.18049502277286877 l -3.278002488461551e-3,9.447470544311942e-3 l 0.5202013778341757,0.18049502277286855 l 1.6390012442307755e-3,-4.72373527215586e-3 Z" /></g><g fill-opacity="0.0" stroke-width="1.0e-2"><path d="M 0.16136177419924638,0.127559851480318 l 0.19098695671010898,-4.9680018564960404e-2 " /></g><g fill-opacity="0.0" stroke-width="1.0e-2"><path d="M 0.16136177419924638,0.127559851480318 l 4.529333289294113e-2,-9.936003712992059e-2 " /></g><g fill-opacity="0.0" stroke-width="1.0e-2"><path d="M 0.16136177419924638,0.127559851480318 l -0.14569362381716786,-4.968001856496018e-2 " /></g><g fill="rgb(0,0,0)" fill-opacity="1.0" stroke-width="1.0e-2"><path d="M -1.9811557372518163e-2,0.5250000000000004 l 4.549592848291972e-3,2.0739346457328e-3 l 0.18117333157176455,-0.39744014851968235 l -9.099185696583967e-3,-4.1478692914656e-3 l -0.18117333157176455,0.39744014851968235 l 4.549592848291983e-3,2.0739346457328e-3 Z" /></g><g fill-opacity="0.0" stroke-width="1.0e-2"><path d="M 0.6792291169556834,0.3445049772271316 l 9.557126587527087e-2,-2.256187784660857e-2 " /></g><g fill-opacity="0.0" stroke-width="1.0e-2"><path d="M 0.6792291169556834,0.3445049772271316 l 0.17476016858205035,-4.512375569321714e-2 " /></g><g fill-opacity="0.0" stroke-width="1.0e-2"><path d="M 0.6792291169556834,0.3445049772271316 l 7.918890270677958e-2,-2.256187784660857e-2 " /></g><g fill="rgb(0,0,0)" fill-opacity="1.0" stroke-width="1.0e-2"><path d="M -1.9811557372518163e-2,0.5250000000000004 l 1.2500227034130938e-3,4.841223320706467e-3 l 0.6990406743282016,-0.18049502277286877 l -2.5000454068262457e-3,-9.682446641412934e-3 l -0.6990406743282016,0.18049502277286877 l 1.2500227034131228e-3,4.841223320706467e-3 Z" /></g><g fill-opacity="0.0" stroke-width="1.0e-2"><path d="M 0.23104600730919211,8.877723552182726e-2 l -0.13535582388294515,-5.452784555977175e-2 " /></g><g fill-opacity="0.0" stroke-width="1.0e-2"><path d="M 0.23104600730919211,8.877723552182726e-2 l 6.271439117042754e-2,-0.10905569111954327 " /></g><g fill-opacity="0.0" stroke-width="1.0e-2"><path d="M 0.23104600730919211,8.877723552182726e-2 l 0.19807021505337274,-5.452784555977175e-2 " /></g><g fill="rgb(0,0,0)" fill-opacity="1.0" stroke-width="1.0e-2"><path d="M -1.9811557372518163e-2,0.5250000000000004 l 4.334404951959486e-3,2.492575718494594e-3 l 0.2508575646817103,-0.4362227644781731 l -8.668809903918967e-3,-4.985151436989188e-3 l -0.2508575646817103,0.4362227644781731 l 4.334404951959497e-3,2.492575718494594e-3 Z" /></g><g fill-opacity="0.0" stroke-width="1.0e-2"><path d="M -0.5638137303923979,-1.1290364481299164e-2 l -0.18814995318309957,-6.703629556016244e-2 " /></g><g fill-opacity="0.0" stroke-width="1.0e-2"><path d="M -0.5638137303923979,-1.1290364481299164e-2 l -0.1360005432549699,-0.13407259112032488 " /></g><g fill-opacity="0.0" stroke-width="1.0e-2"><path d="M -0.5638137303923979,-1.1290364481299164e-2 l 5.21494099281295e-2,-6.703629556016244e-2 " /></g><g fill="rgb(0,0,0)" fill-opacity="1.0" stroke-width="1.0e-2"><path d="M -1.9811557372518163e-2,0.5250000000000004 l 3.510205599147426e-3,-3.560682048669106e-3 l -0.5440021730198797,-0.5362903644812995 l -7.020411198294774e-3,7.121364097338212e-3 l 0.5440021730198797,0.5362903644812995 l 3.510205599147387e-3,-3.560682048669106e-3 Z" /></g><g fill-opacity="0.0" stroke-width="1.0e-2"><path d="M -0.6068809549343149,0.127559851480318 l 2.1535304327808036e-2,-4.968001856496018e-2 " /></g><g fill-opacity="0.0" stroke-width="1.0e-2"><path d="M -0.6068809549343149,0.127559851480318 l -0.14676734939044922,-9.936003712992059e-2 " /></g><g fill-opacity="0.0" stroke-width="1.0e-2"><path d="M -0.6068809549343149,0.127559851480318 l -0.16830265371825737,-4.9680018564960404e-2 " /></g><g fill="rgb(0,0,0)" fill-opacity="1.0" stroke-width="1.0e-2"><path d="M -1.9811557372518163e-2,0.5250000000000004 l 2.803022254240972e-3,-4.14041860712544e-3 l -0.5870693975617968,-0.39744014851968235 l -5.606044508482011e-3,8.28083721425088e-3 l 0.5870693975617968,0.39744014851968235 l 2.8030222542410055e-3,-4.14041860712544e-3 Z" /></g><g fill-opacity="0.0" stroke-width="1.0e-2"><path d="M 5.335836691483989e-2,-0.36129036448129925 l 7.960803843673103e-2,-2.6814518224064887e-2 " /></g><g fill-opacity="0.0" stroke-width="1.0e-2"><path d="M 5.335836691483989e-2,-0.36129036448129925 l 7.316992428735805e-3,-5.3629036448129996e-2 " /></g><g fill-opacity="0.0" stroke-width="1.0e-2"><path d="M 5.335836691483989e-2,-0.36129036448129925 l -7.229104600799523e-2,-2.6814518224064887e-2 " /></g><g fill="rgb(0,0,0)" fill-opacity="1.0" stroke-width="1.0e-2"><path d="M -1.9811557372518163e-2,0.17500000000000027 l 4.954102076827013e-3,6.759235255398011e-4 l 7.316992428735805e-2,-0.5362903644812995 l -9.908204153654038e-3,-1.3518470510796021e-3 l -7.316992428735805e-2,0.5362903644812995 l 4.954102076827019e-3,6.759235255398011e-4 Z" /></g><g fill-opacity="0.0" stroke-width="1.0e-2"><path d="M 0.6648917631411458,-0.22244014851968208 l 4.872899709589251e-2,-1.987200742598416e-2 " /></g><g fill-opacity="0.0" stroke-width="1.0e-2"><path d="M 0.6648917631411458,-0.22244014851968208 l 6.847033205136643e-2,-3.974401485196832e-2 " /></g><g fill-opacity="0.0" stroke-width="1.0e-2"><path d="M 0.6648917631411458,-0.22244014851968208 l 1.974133495547392e-2,-1.987200742598416e-2 " /></g><g fill="rgb(0,0,0)" fill-opacity="1.0" stroke-width="1.0e-2"><path d="M -1.9811557372518163e-2,0.17500000000000027 l 2.510065809873023e-3,4.324299900574147e-3 l 0.684703320513664,-0.39744014851968235 l -5.0201316197460155e-3,-8.648599801148293e-3 l -0.684703320513664,0.39744014851968235 l 2.5100658098730078e-3,4.324299900574147e-3 Z" /></g><g fill-opacity="0.0" stroke-width="1.0e-2"><path d="M 0.3301884426274813,-5.4950227728685075e-3 l -3.671719099609927e-2,-9.024751138643428e-3 " /></g><g fill-opacity="0.0" stroke-width="1.0e-2"><path d="M 0.3301884426274813,-5.4950227728685075e-3 l 3.4999999999999976e-2,-1.8049502277286855e-2 " /></g><g fill-opacity="0.0" stroke-width="1.0e-2"><path d="M 0.3301884426274813,-5.4950227728685075e-3 l 7.171719099609924e-2,-9.024751138643428e-3 " /></g><g fill="rgb(0,0,0)" fill-opacity="1.0" stroke-width="1.0e-2"><path d="M -1.9811557372518163e-2,0.17500000000000027 l 2.2917091806059133e-3,4.443879952420682e-3 l 0.3499999999999995,-0.18049502277286877 l -4.5834183612117885e-3,-8.887759904841364e-3 l -0.3499999999999995,0.18049502277286877 l 2.2917091806058942e-3,4.443879952420682e-3 Z" /></g><g fill-opacity="0.0" stroke-width="1.0e-2"><path d="M -0.4882029818237191,-0.26122276447817283 l -7.650205420576367e-2,-2.1811138223908566e-2 " /></g><g fill-opacity="0.0" stroke-width="1.0e-2"><path d="M -0.4882029818237191,-0.26122276447817283 l -4.683914244512005e-2,-4.3622276447817354e-2 " /></g><g fill-opacity="0.0" stroke-width="1.0e-2"><path d="M -0.4882029818237191,-0.26122276447817283 l 2.9662911760643618e-2,-2.1811138223908566e-2 " /></g><g fill="rgb(0,0,0)" fill-opacity="1.0" stroke-width="1.0e-2"><path d="M -1.9811557372518163e-2,0.17500000000000027 l 3.4076541462919065e-3,-3.6589470096271004e-3 l -0.4683914244512009,-0.4362227644781731 l -6.8153082925838104e-3,7.317894019254201e-3 l 0.4683914244512009,0.4362227644781731 l 3.4076541462919052e-3,-3.6589470096271004e-3 Z" /></g><g fill-opacity="0.0" stroke-width="1.0e-2"><path d="M -0.6592933777223386,-0.36129036448129925 l -9.124703628461406e-4,-2.6814518224064887e-2 " /></g><g fill-opacity="0.0" stroke-width="1.0e-2"><path d="M -0.6592933777223386,-0.36129036448129925 l -6.394818203498209e-2,-5.3629036448129996e-2 " /></g><g fill-opacity="0.0" stroke-width="1.0e-2"><path d="M -0.6592933777223386,-0.36129036448129925 l -6.303571167213595e-2,-2.6814518224064887e-2 " /></g><g fill="rgb(0,0,0)" fill-opacity="1.0" stroke-width="1.0e-2"><path d="M -1.9811557372518163e-2,0.17500000000000027 l 3.212888176831304e-3,-3.8311029173303535e-3 l -0.6394818203498205,-0.5362903644812995 l -6.425776353662593e-3,7.662205834660707e-3 l 0.6394818203498205,0.5362903644812995 l 3.2128881768312967e-3,-3.8311029173303535e-3 Z" /></g><g fill-opacity="0.0" stroke-width="1.0e-2"><path d="M -1.9811557372518163e-2,-0.17499999999999982 l -2.7476377027545504e-2,-0.40221777336097464 " /></g><g fill-opacity="0.0" stroke-width="1.0e-2"><path d="M -1.9811557372518163e-2,-0.17499999999999982 l 0.49012972391103093,-0.298080111389762 " /></g><g fill-opacity="0.0" stroke-width="1.0e-2"><path d="M -1.9811557372518163e-2,-0.17499999999999982 l 0.33039320530116467,-0.13537126707965141 " /></g><g fill-opacity="0.0" stroke-width="1.0e-2"><path d="M -1.9811557372518163e-2,-0.17499999999999982 l -0.28593549338288915,-0.32716707335863005 " /></g><g fill-opacity="0.0" stroke-width="1.0e-2"><path d="M -1.9811557372518163e-2,-0.17499999999999982 l -0.5071110588017608,-0.40221777336097464 " /></g><g fill-opacity="0.0" stroke-width="1.0e-2"><path d="M -1.9811557372518163e-2,-0.5249999999999999 l -7.276909178621545e-2,-0.21811138223908655 " /></g><g fill-opacity="0.0" stroke-width="1.0e-2"><path d="M -1.9811557372518163e-2,-0.5249999999999999 l 0.30310889132455365,-0.26814518224064976 " /></g><g fill-opacity="0.0" stroke-width="1.0e-2"><path d="M -1.9811557372518163e-2,-0.5249999999999999 l 0.26010068891708776,-0.19872007425984117 " /></g><g fill-opacity="0.0" stroke-width="1.0e-2"><path d="M -1.9811557372518163e-2,-0.5249999999999999 l -0.1423578250765303,-9.024751138643428e-2 " /></g><g fill-opacity="0.0" stroke-width="1.0e-2"><path d="M -1.9811557372518163e-2,-0.5249999999999999 l -0.34808266337889565,-0.21811138223908655 " /></g><g fill-opacity="0.0" stroke-width="1.0e-2"><path d="M -1.9811557372518163e-2,-0.875 l -6.271439117042753e-2,-4.512375569321714e-2 " /></g><g fill-opacity="0.0" stroke-width="1.0e-2"><path d="M -1.9811557372518163e-2,-0.875 l 0.13600054325496988,-0.1090556911195435 " /></g><g fill-opacity="0.0" stroke-width="1.0e-2"><path d="M -1.9811557372518163e-2,-0.875 l 0.1467673493904492,-0.13407259112032488 " /></g><g fill-opacity="0.0" stroke-width="1.0e-2"><path d="M -1.9811557372518163e-2,-0.875 l -4.529333289294111e-2,-9.936003712992036e-2 " /></g><g fill-opacity="0.0" stroke-width="1.0e-2"><path d="M -1.9811557372518163e-2,-0.875 l -0.1747601685820504,-4.512375569321714e-2 " /></g><g fill-opacity="0.0" stroke-width="1.0e-2"><path d="M -1.9811557372518163e-2,-1.225 l -3.499999999999994e-2,-3.974401485196832e-2 " /></g><g fill-opacity="0.0" stroke-width="1.0e-2"><path d="M -1.9811557372518163e-2,-1.225 l 4.683914244512012e-2,-1.8049502277286855e-2 " /></g><g fill-opacity="0.0" stroke-width="1.0e-2"><path d="M -1.9811557372518163e-2,-1.225 l 6.394818203498204e-2,-4.362227644781713e-2 " /></g><g fill-opacity="0.0" stroke-width="1.0e-2"><path d="M -1.9811557372518163e-2,-1.225 l -7.316992428735796e-3,-5.3629036448129774e-2 " /></g><g fill-opacity="0.0" stroke-width="1.0e-2"><path d="M -1.9811557372518163e-2,-1.225 l -6.847033205136639e-2,-3.974401485196832e-2 " /></g><g fill-opacity="0.0" stroke-width="1.0e-2"><path d="M -1.9811557372518163e-2,-1.225 v -0.3500000000000001 " /></g><g fill="rgb(0,0,0)" fill-opacity="1.0" stroke-width="1.0e-2"><path d="M -1.9811557372518163e-2,-0.875 h 6.25e-3 l -1.2500000000000002e-3,-0.3500000000000001 h -1.0e-2 l -1.2500000000000002e-3,0.3500000000000001 h 6.25e-3 Z" /></g><g fill="rgb(0,0,0)" fill-opacity="1.0" stroke-width="1.0e-2"><path d="M -1.9811557372518163e-2,-0.5249999999999999 h 1.25e-2 l -6.25e-3,-0.3500000000000001 h -1.25e-2 l -6.25e-3,0.3500000000000001 h 1.25e-2 Z" /></g><g fill="rgb(0,0,0)" fill-opacity="1.0" stroke-width="1.0e-2"><path d="M -1.9811557372518163e-2,-0.17499999999999982 h 1.875e-2 l -6.249999999999999e-3,-0.3500000000000001 h -2.5e-2 l -6.249999999999999e-3,0.3500000000000001 h 1.875e-2 Z" /></g><g fill="rgb(0,0,0)" fill-opacity="1.0" stroke-width="1.0e-2"><path d="M -1.9811557372518163e-2,0.17500000000000027 h 2.5e-2 l -6.250000000000002e-3,-0.3500000000000001 h -3.75e-2 l -6.250000000000002e-3,0.3500000000000001 h 2.5e-2 Z" /></g><g fill="rgb(0,0,0)" fill-opacity="1.0" stroke-width="1.0e-2"><path d="M -1.9811557372518163e-2,0.5250000000000004 h 3.125e-2 l -6.249999999999999e-3,-0.3500000000000001 h -5.0e-2 l -6.249999999999999e-3,0.3500000000000001 h 3.125e-2 Z" /></g><g fill="rgb(0,0,0)" fill-opacity="1.0" stroke-width="1.0e-2"><path d="M -1.9811557372518163e-2,0.8750000000000002 h 3.75e-2 l -6.249999999999999e-3,-0.34999999999999987 h -6.25e-2 l -6.249999999999999e-3,0.34999999999999987 h 3.75e-2 Z" /></g><g fill="rgb(0,0,0)" fill-opacity="1.0" stroke-width="1.0e-2"><path d="M -1.9811557372518163e-2,1.225 h 4.3750000000000004e-2 l -6.2500000000000056e-3,-0.35 h -7.5e-2 l -6.2500000000000056e-3,0.35 h 4.3750000000000004e-2 Z" /></g><g fill="rgb(0,0,0)" fill-opacity="1.0" stroke-width="1.0e-2"><path d="M -1.9811557372518163e-2,1.5750000000000002 l 5.0e-2,3.061616997868383e-18 l -6.249999999999999e-3,-0.35 h -8.750000000000001e-2 l -6.249999999999999e-3,0.35 h 5.0e-2 Z" /></g></g></g></g></g></svg>