<?xml version="1.0" encoding="UTF-8"?>
<!DOCTYPE svg PUBLIC "-//W3C//DTD SVG 1.1//EN"
    "http://www.w3.org/Graphics/SVG/1.1/DTD/svg11.dtd">
<svg xmlns="http://www.w3.org/2000/svg" xmlns:xlink="http://www.w3.org/1999/xlink" version="1.1" width="399.99999999999994" height="654.3053706899207" font-size="1" viewBox="0 0 400 654"><g><g stroke="rgb(0,0,0)" stroke-opacity="1.0" fill="rgb(0,0,0)" fill-opacity="0.0" stroke-width="1.0e-2" stroke-linecap="butt" stroke-linejoin="miter" font-size="1.0em" stroke-miterlimit="10.0"><g transform="matrix(167.12780860534374,0.0,0.0,167.12780860534374,199.99999999999997,327.15268534496033)"><g><g fill-opacity="0.0" stroke-width="1.0e-2"><path d="M 0.3098020861182863,0.8948447733044227 l 0.5076527641650583,-0.14021446001084137 " /></g><g fill-opacity="0.0" stroke-width="1.0e-2"><path d="M 0.3098020861182863,0.8948447733044227 l 0.24508756575676216,-0.28042892002168274 " /></g><g fill-opacity="0.0" stroke-width="1.0e-2"><path d="M 0.3098020861182863,0.8948447733044227 l -0.2625651984082961,-0.14021446001084148 " /></g><g fill="rgb(0,0,0)" fill-opacity="1.0" stroke-width="1.0e-2"><path d="M -1.698133489072995e-2,1.2687499999999996 l 3.764797214623047e-3,3.290334623220925e-3 l 0.32678342100901625,-0.37390522669557696 l -7.529594429246056e-3,-6.58066924644185e-3 l -0.32678342100901625,0.37390522669557696 l 3.764797214623028e-3,3.290334623220925e-3 Z" /></g><g fill-opacity="0.0" stroke-width="1.0e-2"><path d="M 0.5625741608827111,0.8090725447303142 l 9.026960553802565e-2,-0.17237904572613205 " /></g><g fill-opacity="0.0" stroke-width="1.0e-2"><path d="M 0.5625741608827111,0.8090725447303142 l 0.43466662183008076,-0.3447580914522641 " /></g><g fill-opacity="0.0" stroke-width="1.0e-2"><path d="M 0.5625741608827111,0.8090725447303142 l 0.3443970162920552,-0.17237904572613205 " /></g><g fill="rgb(0,0,0)" fill-opacity="1.0" stroke-width="1.0e-2"><path d="M -1.698133489072995e-2,1.2687499999999996 l 3.1070980045017084e-3,3.917389690906603e-3 l 0.579555495773441,-0.45967745526968545 l -6.214196009003414e-3,-7.834779381813206e-3 l -0.579555495773441,0.45967745526968545 l 3.107098004501707e-3,3.917389690906603e-3 Z" /></g><g fill-opacity="0.0" stroke-width="1.0e-2"><path d="M 1.4420238855036419e-2,0.9280870155545576 l -0.43575545224446377,-0.12774861916704072 " /></g><g fill-opacity="0.0" stroke-width="1.0e-2"><path d="M 1.4420238855036419e-2,0.9280870155545576 l 2.355118030932478e-2,-0.25549723833408156 " /></g><g fill-opacity="0.0" stroke-width="1.0e-2"><path d="M 1.4420238855036419e-2,0.9280870155545576 l 0.4593066325537887,-0.12774861916704072 " /></g><g fill="rgb(0,0,0)" fill-opacity="1.0" stroke-width="1.0e-2"><path d="M -1.698133489072995e-2,1.2687499999999996 l 4.978892534224253e-3,4.589434961365102e-4 l 3.140157374576637e-2,-0.340662984445442 l -9.957785068448508e-3,-9.178869922730204e-4 l -3.140157374576637e-2,0.340662984445442 l 4.978892534224254e-3,4.589434961365102e-4 Z" /></g><g fill-opacity="0.0" stroke-width="1.0e-2"><path d="M -0.577129590789051,1.1140399804803978 l -0.35428374062487444,-5.801625731985072e-2 " /></g><g fill-opacity="0.0" stroke-width="1.0e-2"><path d="M -0.577129590789051,1.1140399804803978 l -0.4201111919237408,-0.11603251463970132 " /></g><g fill-opacity="0.0" stroke-width="1.0e-2"><path d="M -0.577129590789051,1.1140399804803978 l -6.582745129886647e-2,-5.8016257319850606e-2 " /></g><g fill="rgb(0,0,0)" fill-opacity="1.0" stroke-width="1.0e-2"><path d="M -1.698133489072995e-2,1.2687499999999996 l 1.3311350089300733e-3,-4.8195518036432405e-3 l -0.5601482558983211,-0.15471001951960178 l -2.6622700178602354e-3,9.639103607286481e-3 l 0.5601482558983211,0.15471001951960178 l 1.3311350089301177e-3,-4.8195518036432405e-3 Z" /></g><g fill-opacity="0.0" stroke-width="1.0e-2"><path d="M -0.39457356952063233,0.8948447733044227 l 0.2152604207504295,-0.14021446001084137 " /></g><g fill-opacity="0.0" stroke-width="1.0e-2"><path d="M -0.39457356952063233,0.8948447733044227 l -0.28319417597242674,-0.28042892002168274 " /></g><g fill-opacity="0.0" stroke-width="1.0e-2"><path d="M -0.39457356952063233,0.8948447733044227 l -0.49845459672285625,-0.14021446001084148 " /></g><g fill="rgb(0,0,0)" fill-opacity="1.0" stroke-width="1.0e-2"><path d="M -1.698133489072995e-2,1.2687499999999996 l 3.5181454750256693e-3,-3.5528372347402026e-3 l -0.3775922346299024,-0.37390522669557696 l -7.036290950051316e-3,7.105674469480405e-3 l 0.3775922346299024,0.37390522669557696 l 3.518145475025658e-3,-3.5528372347402026e-3 Z" /></g><g fill-opacity="0.0" stroke-width="1.0e-2"><path d="M 0.22706065095475067,0.7515399804803979 l 0.3061197788591291,-3.8677504879900404e-2 " /></g><g fill-opacity="0.0" stroke-width="1.0e-2"><path d="M 0.22706065095475067,0.7515399804803979 l 0.1220209929227403,-7.735500975980092e-2 " /></g><g fill-opacity="0.0" stroke-width="1.0e-2"><path d="M 0.22706065095475067,0.7515399804803979 l -0.1840987859363888,-3.8677504879900404e-2 " /></g><g fill="rgb(0,0,0)" fill-opacity="1.0" stroke-width="1.0e-2"><path d="M -1.698133489072995e-2,0.9062499999999997 l 2.6771138612766373e-3,4.222920952819287e-3 l 0.24404198584548062,-0.15471001951960173 l -5.354227722553284e-3,-8.445841905638574e-3 l -0.24404198584548062,0.15471001951960173 l 2.677113861276642e-3,4.222920952819287e-3 Z" /></g><g fill-opacity="0.0" stroke-width="1.0e-2"><path d="M 0.579731802330234,0.5323447733044226 l 0.11717934730261104,-9.34763066738944e-2 " /></g><g fill-opacity="0.0" stroke-width="1.0e-2"><path d="M 0.579731802330234,0.5323447733044226 l 0.298356568610482,-0.18695261334778857 " /></g><g fill-opacity="0.0" stroke-width="1.0e-2"><path d="M 0.579731802330234,0.5323447733044226 l 0.18117722130787095,-9.34763066738944e-2 " /></g><g fill="rgb(0,0,0)" fill-opacity="1.0" stroke-width="1.0e-2"><path d="M -1.698133489072995e-2,0.9062499999999997 l 2.6548921573323857e-3,4.236926673065633e-3 l 0.596713137220964,-0.37390522669557713 l -5.309784314664778e-3,-8.473853346131044e-3 l -0.596713137220964,0.3739052266955769 l 2.654892157332389e-3,4.236926673065633e-3 Z" /></g><g fill-opacity="0.0" stroke-width="1.0e-2"><path d="M 0.10776567959992518,0.44657254473031416 l -0.28895212566174877,-0.11491936381742152 " /></g><g fill-opacity="0.0" stroke-width="1.0e-2"><path d="M 0.10776567959992518,0.44657254473031416 l 6.237350724532757e-2,-0.2298387276348428 " /></g><g fill-opacity="0.0" stroke-width="1.0e-2"><path d="M 0.10776567959992518,0.44657254473031416 l 0.3513256329070763,-0.1149193638174213 " /></g><g fill="rgb(0,0,0)" fill-opacity="1.0" stroke-width="1.0e-2"><path d="M -1.698133489072995e-2,0.9062499999999997 l 4.825466292232497e-3,1.3095323831535666e-3 l 0.12474701449065513,-0.4596774552696855 l -9.650932584465005e-3,-2.619064766307133e-3 l -0.12474701449065513,0.4596774552696855 l 4.8254662922325026e-3,1.3095323831535666e-3 Z" /></g><g fill-opacity="0.0" stroke-width="1.0e-2"><path d="M -0.5365965771613932,0.5655870155545577 l -0.2792855471790352,-8.516574611136063e-2 " /></g><g fill-opacity="0.0" stroke-width="1.0e-2"><path d="M -0.5365965771613932,0.5655870155545577 l -0.2598076211353316,-0.17033149222272104 " /></g><g fill-opacity="0.0" stroke-width="1.0e-2"><path d="M -0.5365965771613932,0.5655870155545577 l 1.9477926043703464e-2,-8.516574611136041e-2 " /></g><g fill="rgb(0,0,0)" fill-opacity="1.0" stroke-width="1.0e-2"><path d="M -1.698133489072995e-2,0.9062499999999997 l 2.7414003190700635e-3,-4.181473937573066e-3 l -0.5196152422706632,-0.34066298444544185 l -5.482800638140217e-3,8.36294787514591e-3 l 0.5196152422706632,0.3406629844454421 l 2.7414003190701086e-3,-4.181473937573066e-3 Z" /></g><g fill-opacity="0.0" stroke-width="1.0e-2"><path d="M -0.46286823017716633,0.7515399804803979 l 6.80597065882409e-2,-3.8677504879900404e-2 " /></g><g fill-opacity="0.0" stroke-width="1.0e-2"><path d="M -0.46286823017716633,0.7515399804803979 l -0.22294344764321822,-7.735500975980092e-2 " /></g><g fill-opacity="0.0" stroke-width="1.0e-2"><path d="M -0.46286823017716633,0.7515399804803979 l -0.2910031542314591,-3.8677504879900515e-2 " /></g><g fill="rgb(0,0,0)" fill-opacity="1.0" stroke-width="1.0e-2"><path d="M -1.698133489072995e-2,0.9062499999999997 l 1.6390012442307896e-3,-4.723735272155971e-3 l -0.4458868952864364,-0.15471001951960173 l -3.278002488461551e-3,9.447470544311942e-3 l 0.4458868952864364,0.15471001951960173 l 1.6390012442307755e-3,-4.723735272155971e-3 Z" /></g><g fill-opacity="0.0" stroke-width="1.0e-2"><path d="M 0.13831009217078252,0.20308701555455766 l 0.163703105751522,-4.2582873055680315e-2 " /></g><g fill-opacity="0.0" stroke-width="1.0e-2"><path d="M 0.13831009217078252,0.20308701555455766 l 3.882285676537811e-2,-8.516574611136041e-2 " /></g><g fill-opacity="0.0" stroke-width="1.0e-2"><path d="M 0.13831009217078252,0.20308701555455766 l -0.12488024898614389,-4.2582873055680315e-2 " /></g><g fill="rgb(0,0,0)" fill-opacity="1.0" stroke-width="1.0e-2"><path d="M -1.698133489072995e-2,0.5437499999999997 l 4.549592848291973e-3,2.0739346457328e-3 l 0.15529142706151247,-0.3406629844454421 l -9.099185696583967e-3,-4.1478692914656e-3 l -0.15529142706151247,0.3406629844454421 l 4.549592848291983e-3,2.0739346457328e-3 Z" /></g><g fill-opacity="0.0" stroke-width="1.0e-2"><path d="M 0.5821963859620143,0.3890399804803979 l 8.191822789308922e-2,-1.9338752439950202e-2 " /></g><g fill-opacity="0.0" stroke-width="1.0e-2"><path d="M 0.5821963859620143,0.3890399804803979 l 0.14979443021318606,-3.8677504879900404e-2 " /></g><g fill-opacity="0.0" stroke-width="1.0e-2"><path d="M 0.5821963859620143,0.3890399804803979 l 6.787620232009683e-2,-1.9338752439950202e-2 " /></g><g fill="rgb(0,0,0)" fill-opacity="1.0" stroke-width="1.0e-2"><path d="M -1.698133489072995e-2,0.5437499999999997 l 1.2500227034130942e-3,4.841223320706467e-3 l 0.5991777208527442,-0.15471001951960184 l -2.5000454068262457e-3,-9.682446641412934e-3 l -0.5991777208527442,0.15471001951960184 l 1.2500227034131228e-3,4.841223320706467e-3 Z" /></g><g fill-opacity="0.0" stroke-width="1.0e-2"><path d="M 0.19803943483645028,0.16984477330442282 l -0.11601927761395298,-4.6738153336947086e-2 " /></g><g fill-opacity="0.0" stroke-width="1.0e-2"><path d="M 0.19803943483645028,0.16984477330442282 l 5.375519243179508e-2,-9.347630667389417e-2 " /></g><g fill-opacity="0.0" stroke-width="1.0e-2"><path d="M 0.19803943483645028,0.16984477330442282 l 0.16977447004574805,-4.6738153336947086e-2 " /></g><g fill="rgb(0,0,0)" fill-opacity="1.0" stroke-width="1.0e-2"><path d="M -1.698133489072995e-2,0.5437499999999997 l 4.334404951959485e-3,2.492575718494594e-3 l 0.21502076972718023,-0.3739052266955769 l -8.668809903918995e-3,-4.985151436989188e-3 l -0.21502076972718023,0.3739052266955769 l 4.334404951959497e-3,2.492575718494594e-3 Z" /></g><g fill-opacity="0.0" stroke-width="1.0e-2"><path d="M -0.4832689117649126,8.407254473031434e-2 l -0.16127138844265676,-5.745968190871076e-2 " /></g><g fill-opacity="0.0" stroke-width="1.0e-2"><path d="M -0.4832689117649126,8.407254473031434e-2 l -0.11657189421854564,-0.1149193638174213 " /></g><g fill-opacity="0.0" stroke-width="1.0e-2"><path d="M -0.4832689117649126,8.407254473031434e-2 l 4.4699494224111014e-2,-5.745968190871076e-2 " /></g><g fill="rgb(0,0,0)" fill-opacity="1.0" stroke-width="1.0e-2"><path d="M -1.698133489072995e-2,0.5437499999999997 l 3.510205599147426e-3,-3.560682048669106e-3 l -0.46628757687418265,-0.4596774552696854 l -7.020411198294885e-3,7.121364097338212e-3 l 0.46628757687418265,0.4596774552696854 l 3.5102055991474423e-3,-3.560682048669106e-3 Z" /></g><g fill-opacity="0.0" stroke-width="1.0e-2"><path d="M -0.5201836756579843,0.20308701555455766 l 1.8458832280978388e-2,-4.2582873055680315e-2 " /></g><g fill-opacity="0.0" stroke-width="1.0e-2"><path d="M -0.5201836756579843,0.20308701555455766 l -0.12580058519181359,-8.516574611136041e-2 " /></g><g fill-opacity="0.0" stroke-width="1.0e-2"><path d="M -0.5201836756579843,0.20308701555455766 l -0.14425941747279203,-4.2582873055680315e-2 " /></g><g fill="rgb(0,0,0)" fill-opacity="1.0" stroke-width="1.0e-2"><path d="M -1.698133489072995e-2,0.5437499999999997 l 2.8030222542409734e-3,-4.14041860712544e-3 l -0.5032023407672543,-0.3406629844454421 l -5.606044508482011e-3,8.28083721425088e-3 l 0.5032023407672543,0.3406629844454421 l 2.8030222542410055e-3,-4.14041860712544e-3 Z" /></g><g fill-opacity="0.0" stroke-width="1.0e-2"><path d="M 4.573574306986267e-2,-0.2784274552696857 l 6.823546151719803e-2,-2.2983872763484348e-2 " /></g><g fill-opacity="0.0" stroke-width="1.0e-2"><path d="M 4.573574306986267e-2,-0.2784274552696857 l 6.2717077960592615e-3,-4.596774552696847e-2 " /></g><g fill-opacity="0.0" stroke-width="1.0e-2"><path d="M 4.573574306986267e-2,-0.2784274552696857 l -6.196375372113877e-2,-2.2983872763484348e-2 " /></g><g fill="rgb(0,0,0)" fill-opacity="1.0" stroke-width="1.0e-2"><path d="M -1.698133489072995e-2,0.1812499999999997 l 4.954102076827013e-3,6.759235255398011e-4 l 6.271707796059262e-2,-0.4596774552696854 l -9.90820415365403e-3,-1.3518470510796021e-3 l -6.271707796059262e-2,0.4596774552696854 l 4.954102076827012e-3,6.759235255398011e-4 Z" /></g><g fill-opacity="0.0" stroke-width="1.0e-2"><path d="M 0.5699072255495535,-0.15941298444544238 l 4.176771179647931e-2,-1.703314922227217e-2 " /></g><g fill-opacity="0.0" stroke-width="1.0e-2"><path d="M 0.5699072255495535,-0.15941298444544238 l 5.868885604402829e-2,-3.406629844454412e-2 " /></g><g fill-opacity="0.0" stroke-width="1.0e-2"><path d="M 0.5699072255495535,-0.15941298444544238 l 1.692114424754909e-2,-1.703314922227217e-2 " /></g><g fill="rgb(0,0,0)" fill-opacity="1.0" stroke-width="1.0e-2"><path d="M -1.698133489072995e-2,0.1812499999999997 l 2.510065809873023e-3,4.324299900574147e-3 l 0.5868885604402835,-0.3406629844454421 l -5.0201316197460155e-3,-8.648599801148293e-3 l -0.5868885604402835,0.3406629844454421 l 2.5100658098730078e-3,4.324299900574147e-3 Z" /></g><g fill-opacity="0.0" stroke-width="1.0e-2"><path d="M 0.2830186651092696,2.653998048039785e-2 l -3.1471877996656517e-2,-7.735500975980081e-3 " /></g><g fill-opacity="0.0" stroke-width="1.0e-2"><path d="M 0.2830186651092696,2.653998048039785e-2 l 2.999999999999997e-2,-1.5471001951960162e-2 " /></g><g fill-opacity="0.0" stroke-width="1.0e-2"><path d="M 0.2830186651092696,2.653998048039785e-2 l 6.147187799665649e-2,-7.735500975980081e-3 " /></g><g fill="rgb(0,0,0)" fill-opacity="1.0" stroke-width="1.0e-2"><path d="M -1.698133489072995e-2,0.1812499999999997 l 2.2917091806059138e-3,4.443879952420682e-3 l 0.29999999999999954,-0.15471001951960184 l -4.5834183612117885e-3,-8.887759904841364e-3 l -0.29999999999999954,0.15471001951960184 l 2.2917091806058942e-3,4.443879952420682e-3 Z" /></g><g fill-opacity="0.0" stroke-width="1.0e-2"><path d="M -0.418459698706045,-0.19265522669557722 l -6.557318931922607e-2,-1.8695261334778834e-2 " /></g><g fill-opacity="0.0" stroke-width="1.0e-2"><path d="M -0.418459698706045,-0.19265522669557722 l -4.014783638153152e-2,-3.739052266955767e-2 " /></g><g fill-opacity="0.0" stroke-width="1.0e-2"><path d="M -0.418459698706045,-0.19265522669557722 l 2.5425352937694545e-2,-1.8695261334778834e-2 " /></g><g fill="rgb(0,0,0)" fill-opacity="1.0" stroke-width="1.0e-2"><path d="M -1.698133489072995e-2,0.1812499999999997 l 3.4076541462919065e-3,-3.6589470096271004e-3 l -0.40147836381531504,-0.3739052266955769 l -6.8153082925838104e-3,7.317894019254201e-3 l 0.40147836381531504,0.3739052266955769 l 3.4076541462919052e-3,-3.6589470096271004e-3 Z" /></g><g fill-opacity="0.0" stroke-width="1.0e-2"><path d="M -0.5651086094762904,-0.2784274552696857 l -7.821174538681364e-4,-2.2983872763484348e-2 " /></g><g fill-opacity="0.0" stroke-width="1.0e-2"><path d="M -0.5651086094762904,-0.2784274552696857 l -5.481272745855603e-2,-4.596774552696847e-2 " /></g><g fill-opacity="0.0" stroke-width="1.0e-2"><path d="M -0.5651086094762904,-0.2784274552696857 l -5.4030610004687896e-2,-2.2983872763484348e-2 " /></g><g fill="rgb(0,0,0)" fill-opacity="1.0" stroke-width="1.0e-2"><path d="M -1.698133489072995e-2,0.1812499999999997 l 3.212888176831305e-3,-3.8311029173303535e-3 l -0.5481272745855604,-0.4596774552696854 l -6.425776353662593e-3,7.662205834660707e-3 l 0.5481272745855604,0.4596774552696854 l 3.2128881768312967e-3,-3.8311029173303535e-3 Z" /></g><g fill-opacity="0.0" stroke-width="1.0e-2"><path d="M -1.698133489072995e-2,-0.18125000000000036 l -2.3551180309324717e-2,-0.3447580914522641 " /></g><g fill-opacity="0.0" stroke-width="1.0e-2"><path d="M -1.698133489072995e-2,-0.18125000000000036 l 0.4201111919237408,-0.25549723833408144 " /></g><g fill-opacity="0.0" stroke-width="1.0e-2"><path d="M -1.698133489072995e-2,-0.18125000000000036 l 0.28319417597242685,-0.11603251463970121 " /></g><g fill-opacity="0.0" stroke-width="1.0e-2"><path d="M -1.698133489072995e-2,-0.18125000000000036 l -0.24508756575676216,-0.2804289200216825 " /></g><g fill-opacity="0.0" stroke-width="1.0e-2"><path d="M -1.698133489072995e-2,-0.18125000000000036 l -0.43466662183008065,-0.3447580914522641 " /></g><g fill-opacity="0.0" stroke-width="1.0e-2"><path d="M -1.698133489072995e-2,-0.5437500000000002 l -6.237350724532753e-2,-0.18695261334778834 " /></g><g fill-opacity="0.0" stroke-width="1.0e-2"><path d="M -1.698133489072995e-2,-0.5437500000000002 l 0.2598076211353317,-0.2298387276348426 " /></g><g fill-opacity="0.0" stroke-width="1.0e-2"><path d="M -1.698133489072995e-2,-0.5437500000000002 l 0.2229434476432181,-0.17033149222272082 " /></g><g fill-opacity="0.0" stroke-width="1.0e-2"><path d="M -1.698133489072995e-2,-0.5437500000000002 l -0.12202099292274025,-7.735500975980081e-2 " /></g><g fill-opacity="0.0" stroke-width="1.0e-2"><path d="M -1.698133489072995e-2,-0.5437500000000002 l -0.298356568610482,-0.18695261334778834 " /></g><g fill-opacity="0.0" stroke-width="1.0e-2"><path d="M -1.698133489072995e-2,-0.90625 l -5.375519243179503e-2,-3.8677504879900404e-2 " /></g><g fill-opacity="0.0" stroke-width="1.0e-2"><path d="M -1.698133489072995e-2,-0.90625 l 0.11657189421854561,-9.347630667389417e-2 " /></g><g fill-opacity="0.0" stroke-width="1.0e-2"><path d="M -1.698133489072995e-2,-0.90625 l 0.1258005851918136,-0.11491936381742152 " /></g><g fill-opacity="0.0" stroke-width="1.0e-2"><path d="M -1.698133489072995e-2,-0.90625 l -3.882285676537809e-2,-8.516574611136063e-2 " /></g><g fill-opacity="0.0" stroke-width="1.0e-2"><path d="M -1.698133489072995e-2,-0.90625 l -0.14979443021318606,-3.8677504879900404e-2 " /></g><g fill-opacity="0.0" stroke-width="1.0e-2"><path d="M -1.698133489072995e-2,-1.2687499999999998 l -2.999999999999995e-2,-3.406629844454434e-2 " /></g><g fill-opacity="0.0" stroke-width="1.0e-2"><path d="M -1.698133489072995e-2,-1.2687499999999998 l 4.0147836381531535e-2,-1.5471001951960162e-2 " /></g><g fill-opacity="0.0" stroke-width="1.0e-2"><path d="M -1.698133489072995e-2,-1.2687499999999998 l 5.481272745855603e-2,-3.739052266955767e-2 " /></g><g fill-opacity="0.0" stroke-width="1.0e-2"><path d="M -1.698133489072995e-2,-1.2687499999999998 l -6.271707796059254e-3,-4.5967745526968695e-2 " /></g><g fill-opacity="0.0" stroke-width="1.0e-2"><path d="M -1.698133489072995e-2,-1.2687499999999998 l -5.868885604402834e-2,-3.406629844454434e-2 " /></g><g fill-opacity="0.0" stroke-width="1.0e-2"><path d="M -1.698133489072995e-2,-1.2687499999999998 v -0.3624999999999998 " /></g><g fill="rgb(0,0,0)" fill-opacity="1.0" stroke-width="1.0e-2"><path d="M -1.698133489072995e-2,-0.90625 h 6.25e-3 l -1.2500000000000002e-3,-0.3624999999999998 h -1.0e-2 l -1.2500000000000002e-3,0.3624999999999998 h 6.25e-3 Z" /></g><g fill="rgb(0,0,0)" fill-opacity="1.0" stroke-width="1.0e-2"><path d="M -1.698133489072995e-2,-0.5437500000000002 h 1.25e-2 l -6.25e-3,-0.3624999999999998 h -1.25e-2 l -6.25e-3,0.3624999999999998 h 1.25e-2 Z" /></g><g fill="rgb(0,0,0)" fill-opacity="1.0" stroke-width="1.0e-2"><path d="M -1.698133489072995e-2,-0.18125000000000036 h 1.875e-2 l -6.249999999999999e-3,-0.3624999999999998 h -2.5e-2 l -6.249999999999999e-3,0.3624999999999998 h 1.875e-2 Z" /></g><g fill="rgb(0,0,0)" fill-opacity="1.0" stroke-width="1.0e-2"><path d="M -1.698133489072995e-2,0.1812499999999997 h 2.5e-2 l -6.250000000000002e-3,-0.36250000000000004 h -3.75e-2 l -6.250000000000002e-3,0.36250000000000004 h 2.5e-2 Z" /></g><g fill="rgb(0,0,0)" fill-opacity="1.0" stroke-width="1.0e-2"><path d="M -1.698133489072995e-2,0.5437499999999997 h 3.125e-2 l -6.249999999999999e-3,-0.36250000000000004 h -5.0e-2 l -6.249999999999999e-3,0.36250000000000004 h 3.125e-2 Z" /></g><g fill="rgb(0,0,0)" fill-opacity="1.0" stroke-width="1.0e-2"><path d="M -1.698133489072995e-2,0.9062499999999997 h 3.75e-2 l -6.249999999999999e-3,-0.36249999999999993 h -6.25e-2 l -6.249999999999999e-3,0.36249999999999993 h 3.75e-2 Z" /></g><g fill="rgb(0,0,0)" fill-opacity="1.0" stroke-width="1.0e-2"><path d="M -1.698133489072995e-2,1.2687499999999996 h 4.3750000000000004e-2 l -6.2500000000000056e-3,-0.3625 h -7.5e-2 l -6.2500000000000056e-3,0.3625 h 4.3750000000000004e-2 Z" /></g><g fill="rgb(0,0,0)" fill-opacity="1.0" stroke-width="1.0e-2"><path d="M -1.698133489072995e-2,1.6312499999999996 l 5.0e-2,3.061616997868383e-18 l -6.249999999999999e-3,-0.3625 h -8.750000000000001e-2 l -6.249999999999999e-3,0.3625 h 5.0e-2 Z" /></g></g></g></g></g></svg>