<?xml version="1.0" encoding="UTF-8"?>
<!DOCTYPE svg PUBLIC "-//W3C//DTD SVG 1.1//EN"
    "http://www.w3.org/Graphics/SVG/1.1/DTD/svg11.dtd">
<svg xmlns="http://www.w3.org/2000/svg" xmlns:xlink="http://www.w3.org/1999/xlink" version="1.1" width="400.0" height="664.5609407634304" font-size="1" viewBox="0 0 400 665"><g><g stroke="rgb(0,0,0)" stroke-opacity="1.0" fill="rgb(0,0,0)" fill-opacity="0.0" stroke-width="1.0e-2" stroke-linecap="butt" stroke-linejoin="miter" font-size="1.0em" stroke-miterlimit="10.0"><g transform="matrix(182.32124575128407,0.0,0.0,182.32124575128407,200.0,332.2804703817152)"><g><g fill-opacity="0.0" stroke-width="1.0e-2"><path d="M 0.2839852456084292,0.8385035421957209 l 0.46534836715130345,-0.1285299216766047 " /></g><g fill-opacity="0.0" stroke-width="1.0e-2"><path d="M 0.2839852456084292,0.8385035421957209 l 0.22466360194369872,-0.2570598433532092 " /></g><g fill-opacity="0.0" stroke-width="1.0e-2"><path d="M 0.2839852456084292,0.8385035421957209 l -0.2406847652076048,-0.1285299216766046 " /></g><g fill="rgb(0,0,0)" fill-opacity="1.0" stroke-width="1.0e-2"><path d="M -1.5566223649835731e-2,1.18125 l 3.7647972146230475e-3,3.290334623220925e-3 l 0.2995514692582649,-0.3427464578042789 l -7.529594429246056e-3,-6.58066924644185e-3 l -0.2995514692582649,0.3427464578042789 l 3.764797214623028e-3,3.290334623220925e-3 Z" /></g><g fill-opacity="0.0" stroke-width="1.0e-2"><path d="M 0.5156929808091519,0.7598789993361215 l 8.274713840985692e-2,-0.15801412524895442 " /></g><g fill-opacity="0.0" stroke-width="1.0e-2"><path d="M 0.5156929808091519,0.7598789993361215 l 0.3984444033442407,-0.31602825049790884 " /></g><g fill-opacity="0.0" stroke-width="1.0e-2"><path d="M 0.5156929808091519,0.7598789993361215 l 0.315697264934384,-0.15801412524895442 " /></g><g fill="rgb(0,0,0)" fill-opacity="1.0" stroke-width="1.0e-2"><path d="M -1.5566223649835731e-2,1.18125 l 3.1070980045017076e-3,3.917389690906603e-3 l 0.5312592044589877,-0.42137100066387834 l -6.214196009003414e-3,-7.834779381813206e-3 l -0.5312592044589877,0.42137100066387834 l 3.107098004501707e-3,3.917389690906603e-3 Z" /></g><g fill-opacity="0.0" stroke-width="1.0e-2"><path d="M 1.3218552283783443e-2,0.868975597591678 l -0.3994424978907586,-0.1171029009031207 " /></g><g fill-opacity="0.0" stroke-width="1.0e-2"><path d="M 1.3218552283783443e-2,0.868975597591678 l 2.1588581950214382e-2,-0.2342058018062414 " /></g><g fill-opacity="0.0" stroke-width="1.0e-2"><path d="M 1.3218552283783443e-2,0.868975597591678 l 0.42103107984097293,-0.1171029009031207 " /></g><g fill="rgb(0,0,0)" fill-opacity="1.0" stroke-width="1.0e-2"><path d="M -1.5566223649835731e-2,1.18125 l 4.978892534224253e-3,4.589434961365102e-4 l 2.8784775933619174e-2,-0.3122744024083218 l -9.957785068448508e-3,-9.178869922730204e-4 l -2.8784775933619174e-2,0.3122744024083218 l 4.978892534224254e-3,4.589434961365102e-4 Z" /></g><g fill-opacity="0.0" stroke-width="1.0e-2"><path d="M -0.5290354582232968,1.0394324821070315 l -0.3247600955728016,-5.3181569209863166e-2 " /></g><g fill-opacity="0.0" stroke-width="1.0e-2"><path d="M -0.5290354582232968,1.0394324821070315 l -0.38510192593009585,-0.10636313841972622 " /></g><g fill-opacity="0.0" stroke-width="1.0e-2"><path d="M -0.5290354582232968,1.0394324821070315 l -6.0341830357294235e-2,-5.3181569209863055e-2 " /></g><g fill="rgb(0,0,0)" fill-opacity="1.0" stroke-width="1.0e-2"><path d="M -1.5566223649835731e-2,1.18125 l 1.331135008930073e-3,-4.8195518036432405e-3 l -0.513469234573461,-0.14181751789296826 l -2.6622700178602354e-3,9.639103607286481e-3 l 0.513469234573461,0.14181751789296826 l 1.3311350089301177e-3,-4.8195518036432405e-3 Z" /></g><g fill-opacity="0.0" stroke-width="1.0e-2"><path d="M -0.36169243872724627,0.8385035421957209 l 0.19732205235456043,-0.1285299216766046 " /></g><g fill-opacity="0.0" stroke-width="1.0e-2"><path d="M -0.36169243872724627,0.8385035421957209 l -0.2595946613080579,-0.2570598433532092 " /></g><g fill-opacity="0.0" stroke-width="1.0e-2"><path d="M -0.36169243872724627,0.8385035421957209 l -0.4569167136626184,-0.1285299216766047 " /></g><g fill="rgb(0,0,0)" fill-opacity="1.0" stroke-width="1.0e-2"><path d="M -1.5566223649835731e-2,1.18125 l 3.5181454750256697e-3,-3.5528372347402026e-3 l -0.34612621507741054,-0.3427464578042789 l -7.036290950051316e-3,7.105674469480405e-3 l 0.34612621507741054,0.3427464578042789 l 3.518145475025658e-3,-3.5528372347402026e-3 Z" /></g><g fill-opacity="0.0" stroke-width="1.0e-2"><path d="M 0.20813893004185485,0.7019324821070315 l 0.28060979728753505,-3.545437947324204e-2 " /></g><g fill-opacity="0.0" stroke-width="1.0e-2"><path d="M 0.20813893004185485,0.7019324821070315 l 0.11185257684584532,-7.090875894648418e-2 " /></g><g fill-opacity="0.0" stroke-width="1.0e-2"><path d="M 0.20813893004185485,0.7019324821070315 l -0.16875722044168978,-3.545437947324204e-2 " /></g><g fill="rgb(0,0,0)" fill-opacity="1.0" stroke-width="1.0e-2"><path d="M -1.5566223649835731e-2,0.8437499999999998 l 2.6771138612766377e-3,4.222920952819287e-3 l 0.22370515369169058,-0.14181751789296826 l -5.354227722553284e-3,-8.445841905638574e-3 l -0.22370515369169058,0.14181751789296826 l 2.677113861276642e-3,4.222920952819287e-3 Z" /></g><g fill-opacity="0.0" stroke-width="1.0e-2"><path d="M 0.5314208188027146,0.5010035421957209 l 0.10741440169406025,-8.568661445106973e-2 " /></g><g fill-opacity="0.0" stroke-width="1.0e-2"><path d="M 0.5314208188027146,0.5010035421957209 l 0.2734935212262751,-0.17137322890213946 " /></g><g fill-opacity="0.0" stroke-width="1.0e-2"><path d="M 0.5314208188027146,0.5010035421957209 l 0.166079119532215,-8.568661445106973e-2 " /></g><g fill="rgb(0,0,0)" fill-opacity="1.0" stroke-width="1.0e-2"><path d="M -1.5566223649835731e-2,0.8437499999999998 l 2.6548921573323857e-3,4.236926673065633e-3 l 0.5469870424525504,-0.34274645780427904 l -5.309784314664778e-3,-8.473853346131044e-3 l -0.5469870424525504,0.3427464578042788 l 2.654892157332389e-3,4.236926673065633e-3 Z" /></g><g fill-opacity="0.0" stroke-width="1.0e-2"><path d="M 9.878520629993148e-2,0.42237899933612133 l -0.264872781856603,-0.10534275016596961 " /></g><g fill-opacity="0.0" stroke-width="1.0e-2"><path d="M 9.878520629993148e-2,0.42237899933612133 l 5.717571497488361e-2,-0.21068550033193922 " /></g><g fill-opacity="0.0" stroke-width="1.0e-2"><path d="M 9.878520629993148e-2,0.42237899933612133 l 0.3220484968314866,-0.10534275016596961 " /></g><g fill="rgb(0,0,0)" fill-opacity="1.0" stroke-width="1.0e-2"><path d="M -1.5566223649835731e-2,0.8437499999999998 l 4.825466292232497e-3,1.3095323831535666e-3 l 0.11435142994976721,-0.42137100066387845 l -9.650932584465005e-3,-2.619064766307133e-3 l -0.11435142994976721,0.42137100066387845 l 4.8254662922325026e-3,1.3095323831535666e-3 Z" /></g><g fill-opacity="0.0" stroke-width="1.0e-2"><path d="M -0.4918801957312771,0.5314755975916778 l -0.2560117515807822,-7.806860060208054e-2 " /></g><g fill-opacity="0.0" stroke-width="1.0e-2"><path d="M -0.4918801957312771,0.5314755975916778 l -0.23815698604072072,-0.15613720120416086 " /></g><g fill-opacity="0.0" stroke-width="1.0e-2"><path d="M -0.4918801957312771,0.5314755975916778 l 1.7854765540061546e-2,-7.806860060208054e-2 " /></g><g fill="rgb(0,0,0)" fill-opacity="1.0" stroke-width="1.0e-2"><path d="M -1.5566223649835731e-2,0.8437499999999998 l 2.7414003190700635e-3,-4.181473937573066e-3 l -0.4763139720814414,-0.31227440240832194 l -5.482800638140106e-3,8.362947875146132e-3 l 0.4763139720814414,0.31227440240832194 l 2.741400319070053e-3,-4.181473937573066e-3 Z" /></g><g fill-opacity="0.0" stroke-width="1.0e-2"><path d="M -0.42429587766240245,0.7019324821070315 l 6.238806437255412e-2,-3.545437947324204e-2 " /></g><g fill-opacity="0.0" stroke-width="1.0e-2"><path d="M -0.42429587766240245,0.7019324821070315 l -0.2043648270062834,-7.090875894648418e-2 " /></g><g fill-opacity="0.0" stroke-width="1.0e-2"><path d="M -0.42429587766240245,0.7019324821070315 l -0.26675289137883745,-3.545437947324215e-2 " /></g><g fill="rgb(0,0,0)" fill-opacity="1.0" stroke-width="1.0e-2"><path d="M -1.5566223649835731e-2,0.8437499999999998 l 1.6390012442307894e-3,-4.72373527215586e-3 l -0.4087296540125667,-0.14181751789296837 l -3.278002488461551e-3,9.447470544311942e-3 l 0.4087296540125667,0.14181751789296815 l 1.6390012442307755e-3,-4.72373527215586e-3 Z" /></g><g fill-opacity="0.0" stroke-width="1.0e-2"><path d="M 0.12678425115655073,0.1939755975916777 l 0.15006118027222853,-3.903430030104027e-2 " /></g><g fill-opacity="0.0" stroke-width="1.0e-2"><path d="M 0.12678425115655073,0.1939755975916777 l 3.55876187015966e-2,-7.806860060208054e-2 " /></g><g fill-opacity="0.0" stroke-width="1.0e-2"><path d="M 0.12678425115655073,0.1939755975916777 l -0.1144735615706319,-3.903430030104027e-2 " /></g><g fill="rgb(0,0,0)" fill-opacity="1.0" stroke-width="1.0e-2"><path d="M -1.5566223649835731e-2,0.5062499999999996 l 4.549592848291973e-3,2.0739346457328e-3 l 0.14235047480638646,-0.31227440240832194 l -9.099185696583967e-3,-4.1478692914656e-3 l -0.14235047480638646,0.31227440240832194 l 4.549592848291983e-3,2.0739346457328e-3 Z" /></g><g fill-opacity="0.0" stroke-width="1.0e-2"><path d="M 0.5336800204651799,0.3644324821070313 l 7.509170890199857e-2,-1.772718973662113e-2 " /></g><g fill-opacity="0.0" stroke-width="1.0e-2"><path d="M 0.5336800204651799,0.3644324821070313 l 0.13731156102875386,-3.545437947324204e-2 " /></g><g fill-opacity="0.0" stroke-width="1.0e-2"><path d="M 0.5336800204651799,0.3644324821070313 l 6.2219852126755404e-2,-1.772718973662113e-2 " /></g><g fill="rgb(0,0,0)" fill-opacity="1.0" stroke-width="1.0e-2"><path d="M -1.5566223649835731e-2,0.5062499999999996 l 1.2500227034130942e-3,4.841223320706467e-3 l 0.5492462441150157,-0.14181751789296837 l -2.5000454068262457e-3,-9.682446641412934e-3 l -0.5492462441150157,0.14181751789296837 l 1.2500227034131228e-3,4.841223320706467e-3 Z" /></g><g fill-opacity="0.0" stroke-width="1.0e-2"><path d="M 0.1815361486000795,0.16350354219572072 l -0.10635100447945693,-4.284330722553498e-2 " /></g><g fill-opacity="0.0" stroke-width="1.0e-2"><path d="M 0.1815361486000795,0.16350354219572072 l 4.9275593062478806e-2,-8.568661445106973e-2 " /></g><g fill-opacity="0.0" stroke-width="1.0e-2"><path d="M 0.1815361486000795,0.16350354219572072 l 0.15562659754193575,-4.284330722553498e-2 " /></g><g fill="rgb(0,0,0)" fill-opacity="1.0" stroke-width="1.0e-2"><path d="M -1.5566223649835731e-2,0.5062499999999996 l 4.334404951959485e-3,2.492575718494594e-3 l 0.19710237224991523,-0.3427464578042789 l -8.668809903918995e-3,-4.985151436989188e-3 l -0.19710237224991523,0.3427464578042789 l 4.334404951959497e-3,2.492575718494594e-3 Z" /></g><g fill-opacity="0.0" stroke-width="1.0e-2"><path d="M -0.4429965024511699,8.48789993361212e-2 l -0.1478321060724353,-5.2671375082984806e-2 " /></g><g fill-opacity="0.0" stroke-width="1.0e-2"><path d="M -0.4429965024511699,8.48789993361212e-2 l -0.1068575697003335,-0.10534275016596961 " /></g><g fill-opacity="0.0" stroke-width="1.0e-2"><path d="M -0.4429965024511699,8.48789993361212e-2 l 4.0974536372101744e-2,-5.2671375082984806e-2 " /></g><g fill="rgb(0,0,0)" fill-opacity="1.0" stroke-width="1.0e-2"><path d="M -1.5566223649835731e-2,0.5062499999999996 l 3.5102055991474263e-3,-3.560682048669106e-3 l -0.42743027880133416,-0.42137100066387845 l -7.020411198294885e-3,7.121364097338212e-3 l 0.42743027880133416,0.42137100066387845 l 3.5102055991474423e-3,-3.560682048669106e-3 Z" /></g><g fill-opacity="0.0" stroke-width="1.0e-2"><path d="M -0.4768350360198189,0.1939755975916777 l 1.692059625756348e-2,-3.903430030104027e-2 " /></g><g fill-opacity="0.0" stroke-width="1.0e-2"><path d="M -0.4768350360198189,0.1939755975916777 l -0.11531720309249582,-7.806860060208054e-2 " /></g><g fill-opacity="0.0" stroke-width="1.0e-2"><path d="M -0.4768350360198189,0.1939755975916777 l -0.1322377993500593,-3.903430030104027e-2 " /></g><g fill="rgb(0,0,0)" fill-opacity="1.0" stroke-width="1.0e-2"><path d="M -1.5566223649835731e-2,0.5062499999999996 l 2.8030222542409734e-3,-4.14041860712544e-3 l -0.4612688123699832,-0.31227440240832194 l -5.6060445084819e-3,8.28083721425088e-3 l 0.4612688123699832,0.31227440240832194 l 2.80302225424095e-3,-4.14041860712544e-3 Z" /></g><g fill-opacity="0.0" stroke-width="1.0e-2"><path d="M 4.1924431147374173e-2,-0.2526210006638787 l 6.254917305743152e-2,-2.1068550033193967e-2 " /></g><g fill-opacity="0.0" stroke-width="1.0e-2"><path d="M 4.1924431147374173e-2,-0.2526210006638787 l 5.74906547972099e-3,-4.2137100066387934e-2 " /></g><g fill-opacity="0.0" stroke-width="1.0e-2"><path d="M 4.1924431147374173e-2,-0.2526210006638787 l -5.680010757771055e-2,-2.1068550033193967e-2 " /></g><g fill="rgb(0,0,0)" fill-opacity="1.0" stroke-width="1.0e-2"><path d="M -1.5566223649835731e-2,0.16874999999999973 l 4.954102076827012e-3,6.759235255398011e-4 l 5.7490654797209904e-2,-0.42137100066387845 l -9.908204153654024e-3,-1.3518470510796021e-3 l -5.7490654797209904e-2,0.42137100066387845 l 4.954102076827012e-3,6.759235255398011e-4 Z" /></g><g fill-opacity="0.0" stroke-width="1.0e-2"><path d="M 0.5224149567537575,-0.1435244024083222 l 3.828706914677271e-2,-1.5613720120416064e-2 " /></g><g fill-opacity="0.0" stroke-width="1.0e-2"><path d="M 0.5224149567537575,-0.1435244024083222 l 5.379811804035928e-2,-3.1227440240832127e-2 " /></g><g fill-opacity="0.0" stroke-width="1.0e-2"><path d="M 0.5224149567537575,-0.1435244024083222 l 1.5511048893586565e-2,-1.5613720120416064e-2 " /></g><g fill="rgb(0,0,0)" fill-opacity="1.0" stroke-width="1.0e-2"><path d="M -1.5566223649835731e-2,0.16874999999999973 l 2.5100658098730234e-3,4.324299900574147e-3 l 0.5379811804035932,-0.31227440240832194 l -5.0201316197460155e-3,-8.648599801148293e-3 l -0.5379811804035932,0.31227440240832194 l 2.5100658098730078e-3,4.324299900574147e-3 Z" /></g><g fill-opacity="0.0" stroke-width="1.0e-2"><path d="M 0.2594337763501639,2.6932482107031364e-2 l -2.884922149693514e-2,-7.090875894648407e-3 " /></g><g fill-opacity="0.0" stroke-width="1.0e-2"><path d="M 0.2594337763501639,2.6932482107031364e-2 l 2.749999999999997e-2,-1.4181751789296815e-2 " /></g><g fill-opacity="0.0" stroke-width="1.0e-2"><path d="M 0.2594337763501639,2.6932482107031364e-2 l 5.634922149693511e-2,-7.090875894648407e-3 " /></g><g fill="rgb(0,0,0)" fill-opacity="1.0" stroke-width="1.0e-2"><path d="M -1.5566223649835731e-2,0.16874999999999973 l 2.291709180605914e-3,4.443879952420682e-3 l 0.27499999999999963,-0.14181751789296837 l -4.5834183612117885e-3,-8.887759904841364e-3 l -0.27499999999999963,0.14181751789296837 l 2.2917091806058942e-3,4.443879952420682e-3 Z" /></g><g fill-opacity="0.0" stroke-width="1.0e-2"><path d="M -0.3835880571472079,-0.1739964578042792 l -6.010875687595724e-2,-1.7137322890213857e-2 " /></g><g fill-opacity="0.0" stroke-width="1.0e-2"><path d="M -0.3835880571472079,-0.1739964578042792 l -3.680218334973723e-2,-3.427464578042794e-2 " /></g><g fill-opacity="0.0" stroke-width="1.0e-2"><path d="M -0.3835880571472079,-0.1739964578042792 l 2.330657352622001e-2,-1.7137322890213857e-2 " /></g><g fill="rgb(0,0,0)" fill-opacity="1.0" stroke-width="1.0e-2"><path d="M -1.5566223649835731e-2,0.16874999999999973 l 3.4076541462919065e-3,-3.6589470096271004e-3 l -0.36802183349737216,-0.3427464578042789 l -6.8153082925838104e-3,7.317894019254201e-3 l 0.36802183349737216,0.3427464578042789 l 3.4076541462919052e-3,-3.6589470096271004e-3 Z" /></g><g fill-opacity="0.0" stroke-width="1.0e-2"><path d="M -0.5180162253532662,-0.2526210006638787 l -7.169409993791342e-4,-2.1068550033193967e-2 " /></g><g fill-opacity="0.0" stroke-width="1.0e-2"><path d="M -0.5180162253532662,-0.2526210006638787 l -5.024500017034306e-2,-4.2137100066387934e-2 " /></g><g fill-opacity="0.0" stroke-width="1.0e-2"><path d="M -0.5180162253532662,-0.2526210006638787 l -4.952805917096392e-2,-2.1068550033193967e-2 " /></g><g fill="rgb(0,0,0)" fill-opacity="1.0" stroke-width="1.0e-2"><path d="M -1.5566223649835731e-2,0.16874999999999973 l 3.212888176831305e-3,-3.8311029173303535e-3 l -0.5024500017034305,-0.42137100066387845 l -6.425776353662593e-3,7.662205834660707e-3 l 0.5024500017034305,0.42137100066387845 l 3.2128881768312967e-3,-3.8311029173303535e-3 Z" /></g><g fill-opacity="0.0" stroke-width="1.0e-2"><path d="M -1.5566223649835731e-2,-0.16875000000000018 l -2.1588581950214326e-2,-0.31602825049790884 " /></g><g fill-opacity="0.0" stroke-width="1.0e-2"><path d="M -1.5566223649835731e-2,-0.16875000000000018 l 0.3851019259300958,-0.2342058018062414 " /></g><g fill-opacity="0.0" stroke-width="1.0e-2"><path d="M -1.5566223649835731e-2,-0.16875000000000018 l 0.259594661308058,-0.10636313841972633 " /></g><g fill-opacity="0.0" stroke-width="1.0e-2"><path d="M -1.5566223649835731e-2,-0.16875000000000018 l -0.22466360194369867,-0.2570598433532092 " /></g><g fill-opacity="0.0" stroke-width="1.0e-2"><path d="M -1.5566223649835731e-2,-0.16875000000000018 l -0.3984444033442407,-0.31602825049790884 " /></g><g fill-opacity="0.0" stroke-width="1.0e-2"><path d="M -1.5566223649835731e-2,-0.5062500000000001 l -5.717571497488358e-2,-0.17137322890213946 " /></g><g fill-opacity="0.0" stroke-width="1.0e-2"><path d="M -1.5566223649835731e-2,-0.5062500000000001 l 0.23815698604072075,-0.21068550033193922 " /></g><g fill-opacity="0.0" stroke-width="1.0e-2"><path d="M -1.5566223649835731e-2,-0.5062500000000001 l 0.20436482700628328,-0.15613720120416108 " /></g><g fill-opacity="0.0" stroke-width="1.0e-2"><path d="M -1.5566223649835731e-2,-0.5062500000000001 l -0.11185257684584525,-7.090875894648407e-2 " /></g><g fill-opacity="0.0" stroke-width="1.0e-2"><path d="M -1.5566223649835731e-2,-0.5062500000000001 l -0.2734935212262752,-0.17137322890213946 " /></g><g fill-opacity="0.0" stroke-width="1.0e-2"><path d="M -1.5566223649835731e-2,-0.84375 l -4.9275593062478786e-2,-3.545437947324226e-2 " /></g><g fill-opacity="0.0" stroke-width="1.0e-2"><path d="M -1.5566223649835731e-2,-0.84375 l 0.1068575697003335,-8.568661445106951e-2 " /></g><g fill-opacity="0.0" stroke-width="1.0e-2"><path d="M -1.5566223649835731e-2,-0.84375 l 0.11531720309249581,-0.10534275016596961 " /></g><g fill-opacity="0.0" stroke-width="1.0e-2"><path d="M -1.5566223649835731e-2,-0.84375 l -3.558761870159659e-2,-7.806860060208054e-2 " /></g><g fill-opacity="0.0" stroke-width="1.0e-2"><path d="M -1.5566223649835731e-2,-0.84375 l -0.13731156102875391,-3.545437947324226e-2 " /></g><g fill-opacity="0.0" stroke-width="1.0e-2"><path d="M -1.5566223649835731e-2,-1.18125 l -2.749999999999996e-2,-3.1227440240832127e-2 " /></g><g fill-opacity="0.0" stroke-width="1.0e-2"><path d="M -1.5566223649835731e-2,-1.18125 l 3.680218334973725e-2,-1.4181751789296815e-2 " /></g><g fill-opacity="0.0" stroke-width="1.0e-2"><path d="M -1.5566223649835731e-2,-1.18125 l 5.0245000170343036e-2,-3.4274645780427715e-2 " /></g><g fill-opacity="0.0" stroke-width="1.0e-2"><path d="M -1.5566223649835731e-2,-1.18125 l -5.749065479720984e-3,-4.2137100066387934e-2 " /></g><g fill-opacity="0.0" stroke-width="1.0e-2"><path d="M -1.5566223649835731e-2,-1.18125 l -5.3798118040359326e-2,-3.1227440240832127e-2 " /></g><g fill-opacity="0.0" stroke-width="1.0e-2"><path d="M -1.5566223649835731e-2,-1.18125 v -0.3374999999999999 " /></g><g fill="rgb(0,0,0)" fill-opacity="1.0" stroke-width="1.0e-2"><path d="M -1.5566223649835731e-2,-0.84375 h 6.25e-3 l -1.2500000000000002e-3,-0.3374999999999999 h -1.0e-2 l -1.2500000000000002e-3,0.3374999999999999 h 6.25e-3 Z" /></g><g fill="rgb(0,0,0)" fill-opacity="1.0" stroke-width="1.0e-2"><path d="M -1.5566223649835731e-2,-0.5062500000000001 h 1.25e-2 l -6.25e-3,-0.3374999999999999 h -1.25e-2 l -6.25e-3,0.3374999999999999 h 1.25e-2 Z" /></g><g fill="rgb(0,0,0)" fill-opacity="1.0" stroke-width="1.0e-2"><path d="M -1.5566223649835731e-2,-0.16875000000000018 h 1.875e-2 l -6.249999999999999e-3,-0.3374999999999999 h -2.5e-2 l -6.249999999999999e-3,0.3374999999999999 h 1.875e-2 Z" /></g><g fill="rgb(0,0,0)" fill-opacity="1.0" stroke-width="1.0e-2"><path d="M -1.5566223649835731e-2,0.16874999999999973 h 2.5e-2 l -6.250000000000002e-3,-0.3374999999999999 h -3.75e-2 l -6.250000000000002e-3,0.3374999999999999 h 2.5e-2 Z" /></g><g fill="rgb(0,0,0)" fill-opacity="1.0" stroke-width="1.0e-2"><path d="M -1.5566223649835731e-2,0.5062499999999996 h 3.125e-2 l -6.249999999999999e-3,-0.3374999999999999 h -5.0e-2 l -6.249999999999999e-3,0.3374999999999999 h 3.125e-2 Z" /></g><g fill="rgb(0,0,0)" fill-opacity="1.0" stroke-width="1.0e-2"><path d="M -1.5566223649835731e-2,0.8437499999999998 h 3.75e-2 l -6.249999999999999e-3,-0.33750000000000013 h -6.25e-2 l -6.249999999999999e-3,0.33750000000000013 h 3.75e-2 Z" /></g><g fill="rgb(0,0,0)" fill-opacity="1.0" stroke-width="1.0e-2"><path d="M -1.5566223649835731e-2,1.18125 h 4.3750000000000004e-2 l -6.2500000000000056e-3,-0.3375 h -7.5e-2 l -6.2500000000000056e-3,0.3375 h 4.3750000000000004e-2 Z" /></g><g fill="rgb(0,0,0)" fill-opacity="1.0" stroke-width="1.0e-2"><path d="M -1.5566223649835731e-2,1.5187499999999998 l 5.0e-2,3.061616997868383e-18 l -6.249999999999999e-3,-0.3375 h -8.750000000000001e-2 l -6.249999999999999e-3,0.3375 h 5.0e-2 Z" /></g></g></g></g></g></svg>