<?xml version="1.0" encoding="UTF-8"?>
<!DOCTYPE svg PUBLIC "-//W3C//DTD SVG 1.1//EN"
    "http://www.w3.org/Graphics/SVG/1.1/DTD/svg11.dtd">
<svg xmlns="http://www.w3.org/2000/svg" xmlns:xlink="http://www.w3.org/1999/xlink" version="1.1" width="400.0" height="562.3207960305949" font-size="1" viewBox="0 0 400 562"><g><g stroke="rgb(0,0,0)" stroke-opacity="1.0" fill="rgb(0,0,0)" fill-opacity="0.0" stroke-width="1.0e-2" stroke-linecap="butt" stroke-linejoin="miter" font-size="1.0em" stroke-miterlimit="10.0"><g transform="matrix(154.2718233280096,0.0,0.0,154.2718233280096,200.0,281.16039801529746)"><g><g fill-opacity="0.0" stroke-width="1.0e-2"><path d="M 0.33561892662814347,0.7761860044131247 l 0.5499571611788132,-0.15189899834507825 " /></g><g fill-opacity="0.0" stroke-width="1.0e-2"><path d="M 0.33561892662814347,0.7761860044131247 l 0.26551152956982566,-0.3037979966901564 " /></g><g fill-opacity="0.0" stroke-width="1.0e-2"><path d="M 0.33561892662814347,0.7761860044131247 l -0.28444563160898745,-0.15189899834507814 " /></g><g fill="rgb(0,0,0)" fill-opacity="1.0" stroke-width="1.0e-2"><path d="M -1.8396446131624167e-2,1.18125 l 3.764797214623047e-3,3.290334623220925e-3 l 0.35401537275976763,-0.4050639955868751 l -7.529594429246056e-3,-6.58066924644185e-3 l -0.35401537275976763,0.4050639955868751 l 3.764797214623028e-3,3.290334623220925e-3 Z" /></g><g fill-opacity="0.0" stroke-width="1.0e-2"><path d="M 0.6094553409562703,0.6832660901245071 l 9.779207266619439e-2,-0.18674396620330969 " /></g><g fill-opacity="0.0" stroke-width="1.0e-2"><path d="M 0.6094553409562703,0.6832660901245071 l 0.47088884031592093,-0.37348793240661937 " /></g><g fill-opacity="0.0" stroke-width="1.0e-2"><path d="M 0.6094553409562703,0.6832660901245071 l 0.37309676764972644,-0.18674396620330969 " /></g><g fill="rgb(0,0,0)" fill-opacity="1.0" stroke-width="1.0e-2"><path d="M -1.8396446131624167e-2,1.18125 l 3.1070980045017084e-3,3.917389690906603e-3 l 0.6278517870878945,-0.4979839098754927 l -6.214196009003414e-3,-7.834779381813206e-3 l -0.6278517870878945,0.4979839098754927 l 3.107098004501707e-3,3.917389690906603e-3 Z" /></g><g fill-opacity="0.0" stroke-width="1.0e-2"><path d="M 1.5621925426289401e-2,0.8121984335174376 l -0.4720684065981692,-0.13839433743096086 " /></g><g fill-opacity="0.0" stroke-width="1.0e-2"><path d="M 1.5621925426289401e-2,0.8121984335174376 l 2.5513778668435176e-2,-0.2767886748619216 " /></g><g fill-opacity="0.0" stroke-width="1.0e-2"><path d="M 1.5621925426289401e-2,0.8121984335174376 l 0.49758218526660447,-0.13839433743096086 " /></g><g fill="rgb(0,0,0)" fill-opacity="1.0" stroke-width="1.0e-2"><path d="M -1.8396446131624167e-2,1.18125 l 4.978892534224253e-3,4.589434961365102e-4 l 3.401837155791357e-2,-0.3690515664825622 l -9.957785068448508e-3,-9.178869922730204e-4 l -3.401837155791357e-2,0.3690515664825622 l 4.978892534224254e-3,4.589434961365102e-4 Z" /></g><g fill-opacity="0.0" stroke-width="1.0e-2"><path d="M -0.6252237233548054,1.0136474788537646 l -0.3838073856769473,-6.285094542983816e-2 " /></g><g fill-opacity="0.0" stroke-width="1.0e-2"><path d="M -0.6252237233548054,1.0136474788537646 l -0.45512045791738587,-0.12570189085967642 " /></g><g fill-opacity="0.0" stroke-width="1.0e-2"><path d="M -0.6252237233548054,1.0136474788537646 l -7.13130722404387e-2,-6.285094542983827e-2 " /></g><g fill="rgb(0,0,0)" fill-opacity="1.0" stroke-width="1.0e-2"><path d="M -1.8396446131624167e-2,1.18125 l 1.3311350089300728e-3,-4.8195518036432405e-3 l -0.6068272772231812,-0.1676025211462352 l -2.6622700178602354e-3,9.639103607286481e-3 l 0.6068272772231812,0.1676025211462352 l 1.3311350089301177e-3,-4.8195518036432405e-3 Z" /></g><g fill-opacity="0.0" stroke-width="1.0e-2"><path d="M -0.4274547003140184,0.7761860044131247 l 0.23319878914629866,-0.15189899834507814 " /></g><g fill-opacity="0.0" stroke-width="1.0e-2"><path d="M -0.4274547003140184,0.7761860044131247 l -0.3067936906367957,-0.3037979966901564 " /></g><g fill-opacity="0.0" stroke-width="1.0e-2"><path d="M -0.4274547003140184,0.7761860044131247 l -0.5399924797830944,-0.15189899834507836 " /></g><g fill="rgb(0,0,0)" fill-opacity="1.0" stroke-width="1.0e-2"><path d="M -1.8396446131624167e-2,1.18125 l 3.51814547502567e-3,-3.5528372347402026e-3 l -0.4090582541823942,-0.4050639955868751 l -7.036290950051316e-3,7.105674469480405e-3 l 0.4090582541823942,0.4050639955868751 l 3.518145475025658e-3,-3.5528372347402026e-3 Z" /></g><g fill-opacity="0.0" stroke-width="1.0e-2"><path d="M 0.24598237186764654,0.6761474788537646 l 0.3316297604307233,-4.190063028655877e-2 " /></g><g fill-opacity="0.0" stroke-width="1.0e-2"><path d="M 0.24598237186764654,0.6761474788537646 l 0.13218940899963533,-8.380126057311765e-2 " /></g><g fill-opacity="0.0" stroke-width="1.0e-2"><path d="M 0.24598237186764654,0.6761474788537646 l -0.19944035143108785,-4.190063028655877e-2 " /></g><g fill="rgb(0,0,0)" fill-opacity="1.0" stroke-width="1.0e-2"><path d="M -1.8396446131624167e-2,0.8437499999999998 l 2.6771138612766373e-3,4.222920952819287e-3 l 0.2643788179992707,-0.1676025211462352 l -5.354227722553229e-3,-8.445841905638574e-3 l -0.2643788179992707,0.1676025211462352 l 2.6771138612766143e-3,4.222920952819287e-3 Z" /></g><g fill-opacity="0.0" stroke-width="1.0e-2"><path d="M 0.6280427858577535,0.43868600441312466 l 0.12694429291116205,-0.10126599889671883 " /></g><g fill-opacity="0.0" stroke-width="1.0e-2"><path d="M 0.6280427858577535,0.43868600441312466 l 0.32321961599468885,-0.20253199779343767 " /></g><g fill-opacity="0.0" stroke-width="1.0e-2"><path d="M 0.6280427858577535,0.43868600441312466 l 0.1962753230835269,-0.10126599889671883 " /></g><g fill="rgb(0,0,0)" fill-opacity="1.0" stroke-width="1.0e-2"><path d="M -1.8396446131624167e-2,0.8437499999999998 l 2.6548921573323865e-3,4.236926673065633e-3 l 0.6464392319893777,-0.4050639955868752 l -5.309784314664778e-3,-8.473853346131044e-3 l -0.6464392319893777,0.405063995586875 l 2.654892157332389e-3,4.236926673065633e-3 Z" /></g><g fill-opacity="0.0" stroke-width="1.0e-2"><path d="M 0.11674615289991891,0.3457660901245072 l -0.3130314694668945,-0.1244959774688732 " /></g><g fill-opacity="0.0" stroke-width="1.0e-2"><path d="M 0.11674615289991891,0.3457660901245072 l 6.757129951577154e-2,-0.2489919549377464 " /></g><g fill-opacity="0.0" stroke-width="1.0e-2"><path d="M 0.11674615289991891,0.3457660901245072 l 0.38060276898266593,-0.1244959774688732 " /></g><g fill="rgb(0,0,0)" fill-opacity="1.0" stroke-width="1.0e-2"><path d="M -1.8396446131624167e-2,0.8437499999999998 l 4.825466292232497e-3,1.3095323831535666e-3 l 0.13514259903154308,-0.49798390987549257 l -9.650932584464977e-3,-2.619064766307133e-3 l -0.13514259903154308,0.49798390987549257 l 4.825466292232489e-3,1.3095323831535666e-3 Z" /></g><g fill-opacity="0.0" stroke-width="1.0e-2"><path d="M -0.5813129585915094,0.47469843351743757 l -0.30255934277728813,-9.22628916206405e-2 " /></g><g fill-opacity="0.0" stroke-width="1.0e-2"><path d="M -0.5813129585915094,0.47469843351743757 l -0.2814582562299427,-0.184525783241281 " /></g><g fill-opacity="0.0" stroke-width="1.0e-2"><path d="M -0.5813129585915094,0.47469843351743757 l 2.1101086547345438e-2,-9.22628916206405e-2 " /></g><g fill="rgb(0,0,0)" fill-opacity="1.0" stroke-width="1.0e-2"><path d="M -1.8396446131624167e-2,0.8437499999999998 l 2.741400319070063e-3,-4.181473937573066e-3 l -0.5629165124598853,-0.3690515664825621 l -5.482800638140217e-3,8.36294787514591e-3 l 0.5629165124598853,0.3690515664825623 l 2.7414003190701086e-3,-4.181473937573066e-3 Z" /></g><g fill-opacity="0.0" stroke-width="1.0e-2"><path d="M -0.5014405826919304,0.6761474788537646 l 7.373134880392762e-2,-4.190063028655877e-2 " /></g><g fill-opacity="0.0" stroke-width="1.0e-2"><path d="M -0.5014405826919304,0.6761474788537646 l -0.24152206828015305,-8.380126057311765e-2 " /></g><g fill-opacity="0.0" stroke-width="1.0e-2"><path d="M -0.5014405826919304,0.6761474788537646 l -0.31525341708408067,-4.190063028655888e-2 " /></g><g fill="rgb(0,0,0)" fill-opacity="1.0" stroke-width="1.0e-2"><path d="M -1.8396446131624167e-2,0.8437499999999998 l 1.6390012442307894e-3,-4.723735272155971e-3 l -0.48304413656030615,-0.1676025211462352 l -3.278002488461551e-3,9.447470544311942e-3 l 0.48304413656030615,0.1676025211462352 l 1.6390012442307755e-3,-4.723735272155971e-3 Z" /></g><g fill-opacity="0.0" stroke-width="1.0e-2"><path d="M 0.14983593318501437,0.13719843351743743 l 0.17734503123081552,-4.613144581032036e-2 " /></g><g fill-opacity="0.0" stroke-width="1.0e-2"><path d="M 0.14983593318501437,0.13719843351743743 l 4.205809482915962e-2,-9.22628916206405e-2 " /></g><g fill-opacity="0.0" stroke-width="1.0e-2"><path d="M 0.14983593318501437,0.13719843351743743 l -0.13528693640165587,-4.613144581032036e-2 " /></g><g fill="rgb(0,0,0)" fill-opacity="1.0" stroke-width="1.0e-2"><path d="M -1.8396446131624167e-2,0.5062499999999996 l 4.549592848291972e-3,2.0739346457328e-3 l 0.16823237931663854,-0.3690515664825622 l -9.099185696583967e-3,-4.1478692914656e-3 l -0.16823237931663854,0.3690515664825622 l 4.549592848291983e-3,2.0739346457328e-3 Z" /></g><g fill-opacity="0.0" stroke-width="1.0e-2"><path d="M 0.6307127514588489,0.33864747885376434 l 8.87447468841801e-2,-2.0950315143279497e-2 " /></g><g fill-opacity="0.0" stroke-width="1.0e-2"><path d="M 0.6307127514588489,0.33864747885376434 l 0.16227729939761826,-4.190063028655877e-2 " /></g><g fill-opacity="0.0" stroke-width="1.0e-2"><path d="M 0.6307127514588489,0.33864747885376434 l 7.353255251343827e-2,-2.0950315143279497e-2 " /></g><g fill="rgb(0,0,0)" fill-opacity="1.0" stroke-width="1.0e-2"><path d="M -1.8396446131624167e-2,0.5062499999999996 l 1.250022703413094e-3,4.841223320706467e-3 l 0.649109197590473,-0.1676025211462353 l -2.5000454068262457e-3,-9.682446641412934e-3 l -0.649109197590473,0.1676025211462353 l 1.2500227034131228e-3,4.841223320706467e-3 Z" /></g><g fill-opacity="0.0" stroke-width="1.0e-2"><path d="M 0.21454272107282107,0.10118600441312453 l -0.1256875507484491,-5.063299944835942e-2 " /></g><g fill-opacity="0.0" stroke-width="1.0e-2"><path d="M 0.21454272107282107,0.10118600441312453 l 5.8234791801111296e-2,-0.10126599889671883 " /></g><g fill-opacity="0.0" stroke-width="1.0e-2"><path d="M 0.21454272107282107,0.10118600441312453 l 0.18392234254956047,-5.063299944835942e-2 " /></g><g fill="rgb(0,0,0)" fill-opacity="1.0" stroke-width="1.0e-2"><path d="M -1.8396446131624167e-2,0.5062499999999996 l 4.334404951959486e-3,2.492575718494594e-3 l 0.23293916720444524,-0.4050639955868751 l -8.668809903918995e-3,-4.985151436989188e-3 l -0.23293916720444524,0.4050639955868751 l 4.334404951959497e-3,2.492575718494594e-3 Z" /></g><g fill-opacity="0.0" stroke-width="1.0e-2"><path d="M -0.5235413210786554,8.266090124507075e-3 l -0.17471067081287817,-6.224798873443671e-2 " /></g><g fill-opacity="0.0" stroke-width="1.0e-2"><path d="M -0.5235413210786554,8.266090124507075e-3 l -0.12628621873675783,-0.1244959774688732 " /></g><g fill-opacity="0.0" stroke-width="1.0e-2"><path d="M -0.5235413210786554,8.266090124507075e-3 l 4.842445207612028e-2,-6.224798873443649e-2 " /></g><g fill="rgb(0,0,0)" fill-opacity="1.0" stroke-width="1.0e-2"><path d="M -1.8396446131624167e-2,0.5062499999999996 l 3.510205599147426e-3,-3.560682048669106e-3 l -0.5051448749470312,-0.49798390987549257 l -7.020411198294774e-3,7.121364097338212e-3 l 0.5051448749470312,0.49798390987549257 l 3.510205599147387e-3,-3.560682048669106e-3 Z" /></g><g fill-opacity="0.0" stroke-width="1.0e-2"><path d="M -0.5635323152961498,0.13719843351743743 l 1.9997068304393184e-2,-4.613144581032036e-2 " /></g><g fill-opacity="0.0" stroke-width="1.0e-2"><path d="M -0.5635323152961498,0.13719843351743743 l -0.13628396729113135,-9.22628916206405e-2 " /></g><g fill-opacity="0.0" stroke-width="1.0e-2"><path d="M -0.5635323152961498,0.13719843351743743 l -0.15628103559552464,-4.613144581032036e-2 " /></g><g fill="rgb(0,0,0)" fill-opacity="1.0" stroke-width="1.0e-2"><path d="M -1.8396446131624167e-2,0.5062499999999996 l 2.803022254240973e-3,-4.14041860712544e-3 l -0.5451358691645256,-0.3690515664825622 l -5.606044508482011e-3,8.28083721425088e-3 l 0.5451358691645256,0.3690515664825622 l 2.8030222542410055e-3,-4.14041860712544e-3 Z" /></g><g fill-opacity="0.0" stroke-width="1.0e-2"><path d="M 4.954705499235117e-2,-0.32923390987549284 l 7.392174997696453e-2,-2.489919549377473e-2 " /></g><g fill-opacity="0.0" stroke-width="1.0e-2"><path d="M 4.954705499235117e-2,-0.32923390987549284 l 6.794350112397526e-3,-4.9798390987549235e-2 " /></g><g fill-opacity="0.0" stroke-width="1.0e-2"><path d="M 4.954705499235117e-2,-0.32923390987549284 l -6.7127399864567e-2,-2.489919549377473e-2 " /></g><g fill="rgb(0,0,0)" fill-opacity="1.0" stroke-width="1.0e-2"><path d="M -1.8396446131624167e-2,0.16874999999999973 l 4.954102076827012e-3,6.759235255398011e-4 l 6.794350112397535e-2,-0.49798390987549257 l -9.908204153654038e-3,-1.3518470510796021e-3 l -6.794350112397532e-2,0.49798390987549257 l 4.954102076827005e-3,6.759235255398011e-4 Z" /></g><g fill-opacity="0.0" stroke-width="1.0e-2"><path d="M 0.6173994943453496,-0.20030156648256248 l 4.524835444618591e-2,-1.8452578324128055e-2 " /></g><g fill-opacity="0.0" stroke-width="1.0e-2"><path d="M 0.6173994943453496,-0.20030156648256248 l 6.357959404769742e-2,-3.690515664825633e-2 " /></g><g fill-opacity="0.0" stroke-width="1.0e-2"><path d="M 0.6173994943453496,-0.20030156648256248 l 1.8331239601511395e-2,-1.8452578324128055e-2 " /></g><g fill="rgb(0,0,0)" fill-opacity="1.0" stroke-width="1.0e-2"><path d="M -1.8396446131624167e-2,0.16874999999999973 l 2.510065809873023e-3,4.324299900574147e-3 l 0.6357959404769737,-0.3690515664825622 l -5.0201316197460155e-3,-8.648599801148293e-3 l -0.6357959404769737,0.3690515664825622 l 2.5100658098730078e-3,4.324299900574147e-3 Z" /></g><g fill-opacity="0.0" stroke-width="1.0e-2"><path d="M 0.3066035538683754,1.1474788537644276e-3 l -3.409453449637789e-2,-8.380126057311754e-3 " /></g><g fill-opacity="0.0" stroke-width="1.0e-2"><path d="M 0.3066035538683754,1.1474788537644276e-3 l 3.249999999999997e-2,-1.676025211462351e-2 " /></g><g fill-opacity="0.0" stroke-width="1.0e-2"><path d="M 0.3066035538683754,1.1474788537644276e-3 l 6.659453449637787e-2,-8.380126057311754e-3 " /></g><g fill="rgb(0,0,0)" fill-opacity="1.0" stroke-width="1.0e-2"><path d="M -1.8396446131624167e-2,0.16874999999999973 l 2.2917091806059133e-3,4.443879952420682e-3 l 0.32499999999999957,-0.1676025211462353 l -4.5834183612117885e-3,-8.887759904841364e-3 l -0.32499999999999957,0.1676025211462353 l 2.2917091806058942e-3,4.443879952420682e-3 Z" /></g><g fill-opacity="0.0" stroke-width="1.0e-2"><path d="M -0.4533313402648822,-0.23631399558687538 l -7.103762176249495e-2,-2.025319977934381e-2 " /></g><g fill-opacity="0.0" stroke-width="1.0e-2"><path d="M -0.4533313402648822,-0.23631399558687538 l -4.3493489413325814e-2,-4.05063995586874e-2 " /></g><g fill-opacity="0.0" stroke-width="1.0e-2"><path d="M -0.4533313402648822,-0.23631399558687538 l 2.754413234916908e-2,-2.025319977934381e-2 " /></g><g fill="rgb(0,0,0)" fill-opacity="1.0" stroke-width="1.0e-2"><path d="M -1.8396446131624167e-2,0.16874999999999973 l 3.4076541462919065e-3,-3.6589470096271004e-3 l -0.43493489413325803,-0.4050639955868751 l -6.8153082925838104e-3,7.317894019254201e-3 l 0.43493489413325803,0.4050639955868751 l 3.4076541462919052e-3,-3.6589470096271004e-3 Z" /></g><g fill-opacity="0.0" stroke-width="1.0e-2"><path d="M -0.6122009935993147,-0.32923390987549284 l -8.472939083571385e-4,-2.489919549377473e-2 " /></g><g fill-opacity="0.0" stroke-width="1.0e-2"><path d="M -0.6122009935993147,-0.32923390987549284 l -5.938045474676901e-2,-4.9798390987549235e-2 " /></g><g fill-opacity="0.0" stroke-width="1.0e-2"><path d="M -0.6122009935993147,-0.32923390987549284 l -5.853316083841198e-2,-2.489919549377473e-2 " /></g><g fill="rgb(0,0,0)" fill-opacity="1.0" stroke-width="1.0e-2"><path d="M -1.8396446131624167e-2,0.16874999999999973 l 3.2128881768313045e-3,-3.8311029173303535e-3 l -0.5938045474676905,-0.49798390987549257 l -6.425776353662593e-3,7.662205834660707e-3 l 0.5938045474676905,0.49798390987549257 l 3.2128881768312967e-3,-3.8311029173303535e-3 Z" /></g><g fill-opacity="0.0" stroke-width="1.0e-2"><path d="M -1.8396446131624167e-2,-0.16875000000000018 l -2.5513778668435114e-2,-0.37348793240661937 " /></g><g fill-opacity="0.0" stroke-width="1.0e-2"><path d="M -1.8396446131624167e-2,-0.16875000000000018 l 0.45512045791738587,-0.2767886748619217 " /></g><g fill-opacity="0.0" stroke-width="1.0e-2"><path d="M -1.8396446131624167e-2,-0.16875000000000018 l 0.3067936906367958,-0.12570189085967653 " /></g><g fill-opacity="0.0" stroke-width="1.0e-2"><path d="M -1.8396446131624167e-2,-0.16875000000000018 l -0.26551152956982566,-0.3037979966901563 " /></g><g fill-opacity="0.0" stroke-width="1.0e-2"><path d="M -1.8396446131624167e-2,-0.16875000000000018 l -0.47088884031592076,-0.37348793240661937 " /></g><g fill-opacity="0.0" stroke-width="1.0e-2"><path d="M -1.8396446131624167e-2,-0.5062500000000001 l -6.75712995157715e-2,-0.20253199779343767 " /></g><g fill-opacity="0.0" stroke-width="1.0e-2"><path d="M -1.8396446131624167e-2,-0.5062500000000001 l 0.2814582562299427,-0.2489919549377464 " /></g><g fill-opacity="0.0" stroke-width="1.0e-2"><path d="M -1.8396446131624167e-2,-0.5062500000000001 l 0.24152206828015296,-0.184525783241281 " /></g><g fill-opacity="0.0" stroke-width="1.0e-2"><path d="M -1.8396446131624167e-2,-0.5062500000000001 l -0.1321894089996353,-8.380126057311754e-2 " /></g><g fill-opacity="0.0" stroke-width="1.0e-2"><path d="M -1.8396446131624167e-2,-0.5062500000000001 l -0.32321961599468885,-0.20253199779343767 " /></g><g fill-opacity="0.0" stroke-width="1.0e-2"><path d="M -1.8396446131624167e-2,-0.84375 l -5.823479180111129e-2,-4.190063028655899e-2 " /></g><g fill-opacity="0.0" stroke-width="1.0e-2"><path d="M -1.8396446131624167e-2,-0.84375 l 0.12628621873675777,-0.10126599889671883 " /></g><g fill-opacity="0.0" stroke-width="1.0e-2"><path d="M -1.8396446131624167e-2,-0.84375 l 0.1362839672911314,-0.12449597746887298 " /></g><g fill-opacity="0.0" stroke-width="1.0e-2"><path d="M -1.8396446131624167e-2,-0.84375 l -4.2058094829159606e-2,-9.226289162064072e-2 " /></g><g fill-opacity="0.0" stroke-width="1.0e-2"><path d="M -1.8396446131624167e-2,-0.84375 l -0.16227729939761826,-4.190063028655899e-2 " /></g><g fill-opacity="0.0" stroke-width="1.0e-2"><path d="M -1.8396446131624167e-2,-1.18125 l -3.2499999999999946e-2,-3.690515664825611e-2 " /></g><g fill-opacity="0.0" stroke-width="1.0e-2"><path d="M -1.8396446131624167e-2,-1.18125 l 4.3493489413325835e-2,-1.676025211462351e-2 " /></g><g fill-opacity="0.0" stroke-width="1.0e-2"><path d="M -1.8396446131624167e-2,-1.18125 l 5.938045474676904e-2,-4.050639955868762e-2 " /></g><g fill-opacity="0.0" stroke-width="1.0e-2"><path d="M -1.8396446131624167e-2,-1.18125 l -6.7943501123975255e-3,-4.979839098754946e-2 " /></g><g fill-opacity="0.0" stroke-width="1.0e-2"><path d="M -1.8396446131624167e-2,-1.18125 l -6.357959404769738e-2,-3.690515664825611e-2 " /></g><g fill-opacity="0.0" stroke-width="1.0e-2"><path d="M -1.8396446131624167e-2,-1.18125 v -0.3374999999999999 " /></g><g fill="rgb(0,0,0)" fill-opacity="1.0" stroke-width="1.0e-2"><path d="M -1.8396446131624167e-2,-0.84375 h 6.25e-3 l -1.2500000000000002e-3,-0.3374999999999999 h -1.0e-2 l -1.2500000000000002e-3,0.3374999999999999 h 6.25e-3 Z" /></g><g fill="rgb(0,0,0)" fill-opacity="1.0" stroke-width="1.0e-2"><path d="M -1.8396446131624167e-2,-0.5062500000000001 h 1.25e-2 l -6.25e-3,-0.3374999999999999 h -1.25e-2 l -6.25e-3,0.3374999999999999 h 1.25e-2 Z" /></g><g fill="rgb(0,0,0)" fill-opacity="1.0" stroke-width="1.0e-2"><path d="M -1.8396446131624167e-2,-0.16875000000000018 h 1.875e-2 l -6.249999999999999e-3,-0.3374999999999999 h -2.5e-2 l -6.249999999999999e-3,0.3374999999999999 h 1.875e-2 Z" /></g><g fill="rgb(0,0,0)" fill-opacity="1.0" stroke-width="1.0e-2"><path d="M -1.8396446131624167e-2,0.16874999999999973 h 2.5e-2 l -6.250000000000002e-3,-0.3374999999999999 h -3.75e-2 l -6.250000000000002e-3,0.3374999999999999 h 2.5e-2 Z" /></g><g fill="rgb(0,0,0)" fill-opacity="1.0" stroke-width="1.0e-2"><path d="M -1.8396446131624167e-2,0.5062499999999996 h 3.125e-2 l -6.249999999999999e-3,-0.3374999999999999 h -5.0e-2 l -6.249999999999999e-3,0.3374999999999999 h 3.125e-2 Z" /></g><g fill="rgb(0,0,0)" fill-opacity="1.0" stroke-width="1.0e-2"><path d="M -1.8396446131624167e-2,0.8437499999999998 h 3.75e-2 l -6.249999999999999e-3,-0.33750000000000013 h -6.25e-2 l -6.249999999999999e-3,0.33750000000000013 h 3.75e-2 Z" /></g><g fill="rgb(0,0,0)" fill-opacity="1.0" stroke-width="1.0e-2"><path d="M -1.8396446131624167e-2,1.18125 h 4.3750000000000004e-2 l -6.2500000000000056e-3,-0.3375 h -7.5e-2 l -6.2500000000000056e-3,0.3375 h 4.3750000000000004e-2 Z" /></g><g fill="rgb(0,0,0)" fill-opacity="1.0" stroke-width="1.0e-2"><path d="M -1.8396446131624167e-2,1.5187499999999998 l 5.0e-2,3.061616997868383e-18 l -6.249999999999999e-3,-0.3375 h -8.750000000000001e-2 l -6.249999999999999e-3,0.3375 h 5.0e-2 Z" /></g></g></g></g></g></svg>